<?xml version="1.0" encoding="utf-8"?>
<!-- Generator: Adobe Illustrator 22.1.0, SVG Export Plug-In . SVG Version: 6.00 Build 0)  -->
<svg version="1.1" id="javaSourceFile" xmlns="http://www.w3.org/2000/svg" xmlns:xlink="http://www.w3.org/1999/xlink" x="0px"
	 y="0px" viewBox="0 0 16 16" style="enable-background:new 0 0 16 16;" xml:space="preserve">
<style type="text/css">
	.st0{fill:#AEC036;}
	.st1{fill:#FFFFFF;}
</style>
<g>
	<path class="st0" d="M8,15.1c3.9,0,7.1-3.2,7.1-7.1S11.9,0.9,8,0.9S0.9,4.1,0.9,8S4.1,15.1,8,15.1z"/>
	<path class="st1" d="M8,4.4c0.6,0,1.3,0.2,1.8,0.5l0.6,0.3c0.1,0.1,0.1,0.2,0.1,0.3L9.8,6.7C9.7,6.8,9.6,6.9,9.5,6.8L8.9,6.5
		C8.7,6.3,8.3,6.2,8,6.2C7,6.2,6.2,7,6.2,8S7,9.8,8,9.8c0.5,0,0.9-0.2,1.3-0.5l0.5-0.5c0.1-0.1,0.2-0.1,0.3,0L11,9.7
		c0.1,0.1,0.1,0.2,0,0.3l-0.5,0.5c-0.6,0.6-1.5,1-2.5,1C6,11.6,4.4,10,4.4,8S6,4.4,8,4.4z"/>
</g>
</svg>
