<svg id="Camada_1" data-name="Camada 1" xmlns="http://www.w3.org/2000/svg" viewBox="0 0 140 84"><defs><style>.cls-1{fill:#fff;}.cls-2{fill:#ed1c24;}.cls-3{isolation:isolate;}.cls-4{fill:#ff6804;}.cls-5{fill:#68bd45;}.cls-6{fill:gray;}</style></defs><title>project</title><rect class="cls-1" width="140" height="84" rx="4" ry="4"/><path id="path14" class="cls-2" d="M115.56,56.39c0,.11-.27.26-.35.32a1.1,1.1,0,0,1-1.35,0,.86.86,0,0,1,.13-1.27,1.64,1.64,0,0,1,.72-.2,6.09,6.09,0,0,1,.85,0Zm-2.69-3.48.16.61c.26-.06.42-.15.81-.23a3.14,3.14,0,0,1,1,0,.69.69,0,0,1,.63.41,1.43,1.43,0,0,1,.11.43v.49l-1.14.09c-1,.13-1.94.65-1.79,1.87a1.25,1.25,0,0,0,1.27,1.2,1.79,1.79,0,0,0,1-.15,2.25,2.25,0,0,0,.41-.21,2.38,2.38,0,0,0,.34-.27l.11.52h.78c0-.16,0-2.1,0-2.32V54.13a1.65,1.65,0,0,0-.21-1c-.53-.85-1.69-.81-2.65-.58a3.67,3.67,0,0,0-.85.31"/><path id="path16" class="cls-2" d="M125,56.45l-.21.17A1.81,1.81,0,0,1,124,57a.81.81,0,0,1-.79-1.25c.29-.49,1.24-.46,1.8-.46Zm-2.68-3.54a2.87,2.87,0,0,0,.16.61c.15,0,.47-.16.82-.23.51-.1,1.35-.19,1.59.36a1.9,1.9,0,0,1,.11.92,3.25,3.25,0,0,1-.57,0,3.56,3.56,0,0,0-1.52.34,1.46,1.46,0,0,0-.84,1.59,1.26,1.26,0,0,0,1.27,1.19,2.1,2.1,0,0,0,1.45-.36,2.38,2.38,0,0,0,.34-.27l.1.52H126V54.13a1.77,1.77,0,0,0-.2-1c-.52-.84-1.71-.78-2.65-.57a3.05,3.05,0,0,0-.85.31"/><path id="path18" class="cls-2" d="M118.77,57.63H120s.13-.21.16-.26a2.39,2.39,0,0,1,.13-.28c.08-.19.16-.4.23-.59a22.79,22.79,0,0,0,.76-2.56c0-.21.3-1.22.3-1.36h-1c-.2,0-.12,0-.17.39a10.74,10.74,0,0,1-.26,1.28,24.07,24.07,0,0,1-.71,2.32l-.27-1-.3-1-.47-1.48c0-.17-.1-.35-.16-.5H117.2c0,.09.73,2.37.78,2.53.14.43.27.83.4,1.25s.27.86.39,1.27"/><path id="path20" class="cls-2" d="M110.76,52.47v4.38a2,2,0,0,1-1.08,2c0,.1.4.46.49.6A2.23,2.23,0,0,0,111,59a2.6,2.6,0,0,0,.55-.75,5.11,5.11,0,0,0,.29-2.3c0-1.73,0-3.45,0-5.18-.13,0-.88,0-1.09,0v1.7"/><g class="cls-3"><path d="M102.19,43.12a1.94,1.94,0,0,1,0,.34c0,.14,0,.26-.07.4l-.81,3.89H99.55l.63-3,.11-.6a3.31,3.31,0,0,0,0-.46.64.64,0,0,0-.16-.47.78.78,0,0,0-.53-.14,1.06,1.06,0,0,0-.42.1,3.51,3.51,0,0,0-.56.3l-.88,4.24H96.05l.63-3c0-.19.07-.37.12-.56a2.22,2.22,0,0,0,0-.46.6.6,0,0,0-.14-.46.72.72,0,0,0-.53-.14,1.1,1.1,0,0,0-.44.11,5.81,5.81,0,0,0-.56.28l-.88,4.24H92.58l1.23-6h1.71l-.09.67a6.33,6.33,0,0,1,.95-.6,2,2,0,0,1,.9-.21,1.53,1.53,0,0,1,.88.26,1.47,1.47,0,0,1,.51.76,7.78,7.78,0,0,1,1.14-.78,1.86,1.86,0,0,1,1-.26,1.44,1.44,0,0,1,1.07.39A1.63,1.63,0,0,1,102.19,43.12Z"/></g><g class="cls-3"><path class="cls-4" d="M105.81,47.22l-.35.23a3,3,0,0,1-.37.21,2.22,2.22,0,0,1-.44.14,4,4,0,0,1-.58,0,1.38,1.38,0,0,1-.95-.32,1.08,1.08,0,0,1-.37-.86,1.79,1.79,0,0,1,.25-.95,2,2,0,0,1,.79-.62,5,5,0,0,1,1.16-.33c.44-.07.93-.11,1.46-.14a.2.2,0,0,1,0-.09c0-.05,0-.07,0-.14a.42.42,0,0,0-.28-.42,2.54,2.54,0,0,0-.84-.11,3.72,3.72,0,0,0-.83.11l-.67.21h-.14l.23-1.11c.19,0,.44-.09.81-.16a8.3,8.3,0,0,1,1.11-.09,3.64,3.64,0,0,1,1.62.27A1,1,0,0,1,108,44a.86.86,0,0,1,0,.21.56.56,0,0,1,0,.23l-.74,3.19h-1.5Zm.39-1.74-.76.07a2,2,0,0,0-.61.14,1,1,0,0,0-.39.25.7.7,0,0,0-.14.44.38.38,0,0,0,.19.35,1,1,0,0,0,.51.09,1.3,1.3,0,0,0,.48-.09c.16-.07.33-.16.49-.25Z"/></g><path d="M114.33,43l-2.89,4.7h-1.72L109,43h1.56l.34,3.24L112.71,43Z"/><path d="M116.79,47.84a2.9,2.9,0,0,1-1.86-.53,1.75,1.75,0,0,1-.65-1.46,3.29,3.29,0,0,1,.21-1.18,2.82,2.82,0,0,1,.63-1,3,3,0,0,1,1-.63,3.35,3.35,0,0,1,1.28-.23,2.49,2.49,0,0,1,1.57.42,1.5,1.5,0,0,1,.53,1.25,5.46,5.46,0,0,1,0,.56l-.14.53h-3.5v.09a1,1,0,0,0,.35.77,1.68,1.68,0,0,0,1,.27,2.4,2.4,0,0,0,.93-.16,3.59,3.59,0,0,0,.76-.37H119l-.27,1.2a4.62,4.62,0,0,1-.93.31A5,5,0,0,1,116.79,47.84Zm1.15-3.08s0-.09,0-.14v-.14a.62.62,0,0,0-.21-.51.91.91,0,0,0-.6-.18,1.31,1.31,0,0,0-.79.25,1.67,1.67,0,0,0-.49.7h2.06Z"/><path d="M125.33,44.07a1.23,1.23,0,0,1,0,.27,1.12,1.12,0,0,1,0,.31l-.69,3.05H123l.53-2.34c.05-.16.07-.32.1-.44a1.94,1.94,0,0,0,0-.34.49.49,0,0,0-.14-.4c-.09-.09-.25-.11-.51-.11a1.46,1.46,0,0,0-.42.07,3.15,3.15,0,0,0-.53.23l-.76,3.33h-1.51l1.09-4.7h1.51l-.12.51a5.58,5.58,0,0,1,.86-.49,2,2,0,0,1,.83-.16,1.51,1.51,0,0,1,1,.3A1.19,1.19,0,0,1,125.33,44.07Z"/><path class="cls-5" d="M55,39.6,46.65,25.08a5.08,5.08,0,0,0-4-2.3H25.91a5.14,5.14,0,0,0-4,2.29L13.55,39.6a5.06,5.06,0,0,0,0,4.58l8.38,14.53a5.1,5.1,0,0,0,4,2.29H42.68a5.12,5.12,0,0,0,4-2.29L55,44.18A5.06,5.06,0,0,0,55,39.6ZM32.48,30.81a1.73,1.73,0,1,1,3.46-.12V41.14a1.73,1.73,0,1,1-3.46.12V30.81Zm1.73,22.05a11.72,11.72,0,0,1-7-21.12,1.53,1.53,0,1,1,1.83,2.46,8.65,8.65,0,1,0,10.3,0,1.54,1.54,0,0,1,1.81-2.49h0a11.72,11.72,0,0,1-6.95,21.16Z"/><path class="cls-6" d="M61.06,34.7a4.34,4.34,0,0,0,2.18.61c1.24,0,2-.65,2-1.6s-.51-1.39-1.78-1.88C61.9,31.29,61,30.49,61,29.17c0-1.47,1.21-2.56,3-2.56a4.34,4.34,0,0,1,2.08.46l-.33,1A3.89,3.89,0,0,0,64,27.62c-1.28,0-1.77.77-1.77,1.41,0,.88.57,1.31,1.87,1.81,1.59.62,2.4,1.39,2.4,2.77s-1.08,2.71-3.3,2.71a5,5,0,0,1-2.4-.6Z"/><path class="cls-6" d="M68.07,31.63c0-.87,0-1.57-.06-2.21h1.11l0,1.16h0a2.64,2.64,0,0,1,2.4-1.31c1.63,0,2.86,1.38,2.86,3.43,0,2.43-1.48,3.63-3.07,3.63a2.38,2.38,0,0,1-2.08-1.06h0v3.67H68.07Zm1.21,1.8a2.54,2.54,0,0,0,.06.5,1.89,1.89,0,0,0,1.84,1.44c1.3,0,2-1.06,2-2.61,0-1.36-.71-2.52-2-2.52a2,2,0,0,0-1.85,1.52,2.18,2.18,0,0,0-.09.51Z"/><path class="cls-6" d="M76,31.53c0-.8,0-1.48-.05-2.11H77l0,1.33h.06A2,2,0,0,1,79,29.27a1.25,1.25,0,0,1,.35,0v1.16A1.67,1.67,0,0,0,77.28,32a3.36,3.36,0,0,0,0,.57v3.61H76Z"/><path class="cls-6" d="M82,27.52a.76.76,0,0,1-1.52,0,.75.75,0,0,1,.77-.77A.73.73,0,0,1,82,27.52Zm-1.37,8.66V29.42h1.23v6.76Z"/><path class="cls-6" d="M83.9,31.25c0-.7,0-1.27-.06-1.83h1.09L85,30.54h0a2.47,2.47,0,0,1,2.23-1.27c.94,0,2.39.55,2.39,2.87v4H88.42v-3.9c0-1.09-.4-2-1.56-2a1.76,1.76,0,0,0-1.65,1.26,1.64,1.64,0,0,0-.08.57v4.07H83.9Z"/><path class="cls-6" d="M97.47,29.42c0,.49-.06,1-.06,1.86V35.2c0,1.55-.3,2.5-1,3.09a3.61,3.61,0,0,1-2.46.8,4.41,4.41,0,0,1-2.25-.55l.31-.94a3.82,3.82,0,0,0,2,.53c1.26,0,2.18-.65,2.18-2.36V35h0A2.4,2.4,0,0,1,94,36.15a3,3,0,0,1-2.87-3.3c0-2.29,1.49-3.58,3-3.58a2.25,2.25,0,0,1,2.11,1.17h0l0-1ZM96.2,32.09a1.91,1.91,0,0,0-.07-.56,1.79,1.79,0,0,0-1.72-1.3c-1.17,0-2,1-2,2.55,0,1.33.67,2.43,2,2.43A1.8,1.8,0,0,0,96.1,34a2.16,2.16,0,0,0,.1-.66Z"/><path class="cls-6" d="M99.49,26.89a12,12,0,0,1,2.22-.19,3.89,3.89,0,0,1,2.58.68,2,2,0,0,1,.79,1.66,2.23,2.23,0,0,1-1.6,2.07v0a2.41,2.41,0,0,1,1.94,2.36,2.54,2.54,0,0,1-.79,1.88,4.74,4.74,0,0,1-3.25.88,13.69,13.69,0,0,1-1.89-.11Zm1.22,3.86h1.1c1.28,0,2-.67,2-1.58,0-1.11-.84-1.54-2.07-1.54a4.46,4.46,0,0,0-1.07.09Zm0,4.5a5.42,5.42,0,0,0,1,.06c1.26,0,2.42-.46,2.42-1.83s-1.1-1.81-2.43-1.81h-1Z"/><path class="cls-6" d="M113.19,32.74a3.3,3.3,0,0,1-3.37,3.59,3.21,3.21,0,0,1-3.24-3.48,3.29,3.29,0,0,1,3.35-3.58A3.2,3.2,0,0,1,113.19,32.74Zm-5.36.07c0,1.48.85,2.6,2,2.6s2.05-1.1,2.05-2.63c0-1.14-.57-2.59-2-2.59S107.83,31.53,107.83,32.81Z"/><path class="cls-6" d="M120.85,32.74a3.3,3.3,0,0,1-3.36,3.59,3.21,3.21,0,0,1-3.24-3.48,3.29,3.29,0,0,1,3.35-3.58A3.2,3.2,0,0,1,120.85,32.74Zm-5.36.07c0,1.48.85,2.6,2.05,2.6s2-1.1,2-2.63c0-1.14-.57-2.59-2-2.59S115.49,31.53,115.49,32.81Z"/><path class="cls-6" d="M123.88,27.48v1.94h1.76v.93h-1.76V34c0,.84.24,1.31.92,1.31a2.82,2.82,0,0,0,.71-.08l.06.92a3,3,0,0,1-1.09.17,1.74,1.74,0,0,1-1.33-.52,2.49,2.49,0,0,1-.47-1.76V30.35h-1.05v-.93h1.05V27.8Z"/></svg>