<?xml version="1.0" encoding="utf-8"?>
<!-- Generator: Adobe Illustrator 25.0.0, SVG Export Plug-In . SVG Version: 6.00 Build 0)  -->
<svg version="1.1" id="Camada_1" xmlns="http://www.w3.org/2000/svg" xmlns:xlink="http://www.w3.org/1999/xlink" x="0px" y="0px"
	 viewBox="0 0 140 84" style="enable-background:new 0 0 140 84;" xml:space="preserve">
<style type="text/css">
	.st0{fill:#FFFFFF;}
	.st1{fill:#F0EAF9;}
	.st2{fill:#E1D5F3;}
	.st3{fill:#5628B4;}
	.st4{fill:#6F48BF;}
	.st5{fill:#421198;}
	.st6{fill:#D9C9EF;}
	.st7{fill:#DFD2F2;}
	.st8{fill:#F7B236;}
	.st9{fill:#B39DDD;}
	.st10{fill:#D80E70;}
	.st11{fill:#88B337;}
	.st12{fill:#E8594A;}
	.st13{fill:#D65245;}
	.st14{fill:#FDB62F;}
	.st15{fill:#FFA719;}
	.st16{fill:#4398D1;}
	.st17{fill:#3E8FC9;}
	.st18{fill:#80A834;}
</style>
<path class="st0" d="M4,0h132c2.2,0,4,1.8,4,4v76c0,2.2-1.8,4-4,4H4c-2.2,0-4-1.8-4-4V4C0,1.8,1.8,0,4,0z"/>
<path class="st1" d="M41.4,9h56.4c3.5,0,6.3,2.8,6.3,6.3v50.1c0,3.5-2.8,6.3-6.3,6.3H41.4c-3.5,0-6.3-2.8-6.3-6.3V15.3
	C35.1,11.8,37.9,9,41.4,9z"/>
<path class="st2" d="M38.3,21.5h62.6c1.7,0,3.1,1.4,3.1,3.1v0c0,1.7-1.4,3.1-3.1,3.1H38.3c-1.7,0-3.1-1.4-3.1-3.1v0
	C35.1,22.9,36.5,21.5,38.3,21.5z"/>
<path class="st3" d="M41.4,9h56.4c3.5,0,6.3,2.8,6.3,6.3l0,0v9.4l0,0H35.1l0,0v-9.4C35.1,11.8,37.9,9,41.4,9L41.4,9L41.4,9z"/>
<path class="st4" d="M41.4,9h56.4c1.7,0,3.1,1.4,3.1,3.1v0c0,1.7-1.4,3.1-3.1,3.1H41.4c-1.7,0-3.1-1.4-3.1-3.1v0
	C38.3,10.4,39.7,9,41.4,9z"/>
<path class="st5" d="M39.8,21.5h59.5c0.9,0,1.6,0.7,1.6,1.6l0,0c0,0.9-0.7,1.6-1.6,1.6H39.8c-0.9,0-1.6-0.7-1.6-1.6l0,0
	C38.3,22.2,39,21.5,39.8,21.5z"/>
<path class="st6" d="M102.4,30.9c-0.9,0-1.6,0.7-1.6,1.6c0,0,0,0,0,0v32.9c0,1.7-1.4,3.1-3.1,3.1H80.5c-0.9,0-1.6,0.7-1.6,1.6
	s0.7,1.6,1.6,1.6h17.2c3.5,0,6.3-2.8,6.3-6.3V32.5C104,31.6,103.3,30.9,102.4,30.9L102.4,30.9L102.4,30.9z"/>
<path class="st7" d="M36.7,37.2L36.7,37.2c0.9,0,1.6,0.7,1.6,1.6v25c0,0.9-0.7,1.6-1.6,1.6l0,0c-0.9,0-1.6-0.7-1.6-1.6v-25
	C35.1,37.9,35.8,37.2,36.7,37.2z"/>
<circle class="st8" cx="42.9" cy="16.8" r="1.6"/>
<circle class="st9" cx="49.2" cy="16.8" r="1.6"/>
<circle class="st10" cx="55.5" cy="16.8" r="1.6"/>
<path class="st11" d="M70.2,35.5c-0.4,0-0.8,0.1-1.1,0.2v-4.3H58.6c-1.9,0-3.5,1.6-3.5,3.5v10.4h4.3c-0.7-1.5,0-3.2,1.5-3.8
	c1.5-0.7,3.2,0,3.8,1.5c0.3,0.8,0.3,1.6,0,2.3h4.3v-4.3c1.5,0.7,3.2,0,3.8-1.5c0.6-1.5,0-3.2-1.5-3.8C71,35.6,70.5,35.5,70.2,35.5z"
	/>
<path class="st12" d="M82.9,34.9c0-1.9-1.6-3.5-3.5-3.5H69v4.3c1.5-0.7,3.2,0,3.8,1.5c0.7,1.5,0,3.2-1.5,3.8c-0.8,0.3-1.6,0.3-2.3,0
	v4.3h4.3c-0.7,1.5,0,3.2,1.5,3.8c1.5,0.7,3.2,0,3.8-1.5c0.3-0.8,0.3-1.6,0-2.3h4.3L82.9,34.9L82.9,34.9z"/>
<path class="st13" d="M82.9,35.3c-3.3,4.6-9.2,7.2-13.8,8.6v1.5h4.3c-0.7,1.5,0,3.2,1.5,3.8c1.5,0.7,3.2,0,3.8-1.5
	c0.3-0.8,0.3-1.6,0-2.3h4.3L82.9,35.3L82.9,35.3z"/>
<path class="st14" d="M67.8,49.9c0.4,0,0.8,0.1,1.1,0.2v-4.8h-4.3c0.7-1.5,0-3.2-1.5-3.8c-1.5-0.7-3.2,0-3.8,1.5
	c-0.3,0.8-0.3,1.6,0,2.3h-4.3v10.4c0,1.9,1.6,3.5,3.5,3.5H69v-3.7c-1.5,0.7-3.2,0-3.8-1.5c-0.7-1.5,0-3.2,1.5-3.8
	C67,50,67.4,49.9,67.8,49.9z"/>
<path class="st15" d="M55.1,55.7c0,1.9,1.6,3.5,3.5,3.5H69v-3.7c-1.5,0.6-3.1,0-3.8-1.5c-0.1-0.3-0.2-0.7-0.2-1.1
	c-3.1,1.4-6.4,2.1-9.8,2.2V55.7L55.1,55.7z"/>
<path class="st16" d="M84.4,57.4l-3.7-9.8l-4,1.5c1.1,1.1,1.1,3,0,4.1c-1.1,1.1-3,1.1-4.1,0c-0.6-0.6-0.9-1.4-0.8-2.2l-4,1.5
	l1.7,4.6c-0.4,0-0.8,0-1.2,0.2c-1.5,0.6-2.2,2.3-1.7,3.7s2.2,2.2,3.7,1.7c0.4-0.1,0.7-0.4,1-0.6l1.3,3.5l9.7-3.7
	C84.1,61.2,85,59.2,84.4,57.4z"/>
<path class="st17" d="M82.5,52.3c-4,6-11.5,8.1-15.8,8.8c0.6,1.5,2.3,2.1,3.7,1.5c0.3-0.1,0.6-0.3,0.9-0.6l1.3,3.5l9.7-3.7
	c1.8-0.7,2.7-2.7,2-4.5L82.5,52.3z"/>
<path class="st18" d="M70.2,35.5c-0.4,0-0.8,0.1-1.1,0.2v-0.9c-4.3,4-10.2,6.2-13.8,7.3v3.2h4.3c-0.7-1.5,0-3.2,1.5-3.8
	c1.5-0.7,3.2,0,3.8,1.5c0.3,0.8,0.3,1.6,0,2.3H69v-4.3c1.5,0.7,3.2,0,3.8-1.5c0.6-1.5,0-3.2-1.5-3.8C71,35.6,70.5,35.5,70.2,35.5z"
	/>
</svg>
