<?xml version="1.0" encoding="utf-8"?>
<!-- Generator: Adobe Illustrator 25.0.0, SVG Export Plug-In . SVG Version: 6.00 Build 0)  -->
<svg version="1.1" id="Camada_1" xmlns="http://www.w3.org/2000/svg" xmlns:xlink="http://www.w3.org/1999/xlink" x="0px" y="0px"
	 viewBox="0 0 140 84" style="enable-background:new 0 0 140 84;" xml:space="preserve">
<style type="text/css">
	.st0{fill:#FFFFFF;}
	.st1{fill:#88B337;}
	.st2{fill:#E8594A;}
	.st3{fill:#D65245;}
	.st4{fill:#FDB62F;}
	.st5{fill:#FFA719;}
	.st6{fill:#4398D1;}
	.st7{fill:#3E8FC9;}
	.st8{fill:#80A834;}
</style>
<path class="st0" d="M4,0h132c2.2,0,4,1.8,4,4v76c0,2.2-1.8,4-4,4H4c-2.2,0-4-1.8-4-4V4C0,1.8,1.8,0,4,0z"/>
<path class="st1" d="M71.5,18.1c-0.8,0-1.7,0.2-2.4,0.5v-9H47.1c-4,0-7.3,3.3-7.3,7.3v21.9h9c-1.4-3.1,0-6.7,3.1-8
	c3.1-1.4,6.7,0,8,3.1c0.7,1.6,0.7,3.3,0,4.9h9v-9c3.1,1.4,6.7,0,8-3.1s0-6.7-3.1-8C73.2,18.2,72.3,18.1,71.5,18.1z"/>
<path class="st2" d="M98.3,16.9c0-4-3.3-7.3-7.3-7.3H69v9c3.1-1.4,6.7,0,8,3.1c1.4,3.1,0,6.7-3.1,8c-1.6,0.7-3.3,0.7-4.9,0v9h9
	c-1.4,3.1,0,6.7,3.1,8c3.1,1.4,6.7,0,8-3.1c0.7-1.6,0.7-3.3,0-4.9h9L98.3,16.9L98.3,16.9z"/>
<path class="st3" d="M98.3,17.6c-7,9.7-19.5,15.2-29.2,18.2v3.1h9c-1.4,3.1,0,6.7,3.1,8c3.1,1.4,6.7,0,8-3.1c0.7-1.6,0.7-3.3,0-4.9
	h9V17.6z"/>
<path class="st4" d="M66.6,48.5c0.8,0,1.7,0.2,2.4,0.5V38.8h-9c1.4-3.1,0-6.7-3.1-8c-3.1-1.4-6.7,0-8,3.1c-0.7,1.6-0.7,3.3,0,4.9h-9
	v21.9c0,4,3.3,7.3,7.3,7.3H69v-7.8c-3.1,1.4-6.7,0-8-3.1c-1.4-3.1,0-6.7,3.1-8C64.9,48.7,65.8,48.5,66.6,48.5z"/>
<path class="st5" d="M39.8,60.7c0,4,3.3,7.3,7.3,7.3H69v-7.8c-3.1,1.3-6.6,0-8-3.1c-0.3-0.7-0.5-1.5-0.5-2.3
	C54,57.8,47,59.3,39.8,59.5L39.8,60.7L39.8,60.7z"/>
<path class="st6" d="M101.5,64.3l-7.7-20.6l-8.5,3.2c2.4,2.4,2.3,6.3-0.1,8.6c-2.4,2.4-6.3,2.3-8.6-0.1c-1.2-1.2-1.8-2.9-1.7-4.6
	L66.4,54l3.6,9.6c-0.8,0-1.7,0.1-2.5,0.4c-3.1,1.2-4.7,4.8-3.5,7.9c1.2,3.1,4.6,4.7,7.8,3.5c0.8-0.3,1.5-0.8,2.1-1.3l2.7,7.3
	l20.5-7.7C101,72.3,102.9,68,101.5,64.3z"/>
<path class="st7" d="M97.5,53.6c-8.4,12.6-24.2,17-33.4,18.5c1.3,3.1,4.8,4.5,7.9,3.2c0.7-0.3,1.3-0.7,1.9-1.3l2.7,7.3l20.5-7.7
	c3.8-1.4,5.7-5.7,4.3-9.4L97.5,53.6z"/>
<path class="st8" d="M71.5,18.1c-0.8,0-1.7,0.2-2.4,0.5v-1.8c-9.1,8.4-21.5,13-29.2,15.3v6.7h9c-1.4-3.1,0-6.7,3.1-8
	c3.1-1.4,6.7,0,8,3.1c0.7,1.6,0.7,3.3,0,4.9h9v-9c3.1,1.4,6.7,0,8-3.1s0-6.7-3.1-8C73.2,18.2,72.3,18.1,71.5,18.1z"/>
</svg>
