<?xml version="1.0" encoding="utf-8"?>
<!-- Generator: Adobe Illustrator 22.1.0, SVG Export Plug-In . SVG Version: 6.00 Build 0)  -->
<svg version="1.1" id="Camada_1" xmlns="http://www.w3.org/2000/svg" xmlns:xlink="http://www.w3.org/1999/xlink" x="0px" y="0px"
	 viewBox="0 0 140 84" style="enable-background:new 0 0 140 84;" xml:space="preserve">
<style type="text/css">
	.st0{fill:#FFFFFF;}
	.st1{fill:url(#path1948_1_);}
	.st2{fill:url(#path1950_1_);}
	.st3{fill:#B3B3B3;}
	.st4{font-family:'ArialMT';}
	.st5{font-size:8px;}
	.st6{fill:#808080;}
</style>
<path class="st0" d="M136,84H4c-2.2,0-4-1.8-4-4V4c0-2.2,1.8-4,4-4h132c2.2,0,4,1.8,4,4v76C140,82.2,138.2,84,136,84z"/>
<linearGradient id="path1948_1_" gradientUnits="userSpaceOnUse" x1="244.4364" y1="1283.5405" x2="278.0121" y2="1254.6532" gradientTransform="matrix(0.5625 0 0 -0.568 -87.0903 740.4227)">
	<stop  offset="0" style="stop-color:#5A9FD4"/>
	<stop  offset="1" style="stop-color:#306998"/>
</linearGradient>
<path id="path1948_7_" class="st1" d="M68.2,10.4c-1.4,0-2.8,0.1-3.9,0.3c-3.5,0.6-4.1,1.9-4.1,4.3v3.1h8.3v1h-8.3H57
	c-2.4,0-4.5,1.4-5.2,4.2c-0.8,3.1-0.8,5.1,0,8.4c0.6,2.4,2,4.2,4.4,4.2h2.8v-3.8c0-2.7,2.4-5.1,5.2-5.1h8.2c2.3,0,4.1-1.9,4.1-4.2
	V15c0-2.2-1.9-3.9-4.1-4.3C71,10.5,69.6,10.4,68.2,10.4z M63.7,12.9c0.9,0,1.5,0.7,1.5,1.6c0,0.9-0.7,1.6-1.5,1.6
	c-0.9,0-1.5-0.7-1.5-1.6C62.1,13.6,62.8,12.9,63.7,12.9z"/>
<linearGradient id="path1950_1_" gradientUnits="userSpaceOnUse" x1="290.9922" y1="1237.1719" x2="279.003" y2="1254.1345" gradientTransform="matrix(0.5625 0 0 -0.568 -87.0903 740.4227)">
	<stop  offset="0" style="stop-color:#FFD43B"/>
	<stop  offset="1" style="stop-color:#FFE873"/>
</linearGradient>
<path id="path1950_7_" class="st2" d="M77.6,19.2v3.7c0,2.8-2.4,5.2-5.2,5.2h-8.2c-2.3,0-4.1,1.9-4.1,4.2v7.9c0,2.2,1.9,3.6,4.1,4.2
	c2.6,0.8,5.1,0.9,8.2,0c2.1-0.6,4.1-1.8,4.1-4.2V37h-8.2v-1h8.2h4.1c2.4,0,3.3-1.7,4.1-4.2c0.9-2.6,0.8-5.1,0-8.4
	c-0.6-2.4-1.7-4.2-4.1-4.2H77.6z M73,39.1c0.9,0,1.5,0.7,1.5,1.6c0,0.9-0.7,1.6-1.5,1.6c-0.9,0-1.5-0.7-1.5-1.6
	C71.4,39.8,72.1,39.1,73,39.1z"/>
<text transform="matrix(1 0 0 1 60.5 74.833)" class="st3 st4 st5">flask</text>
<g>
	<path class="st6" d="M51.5,53.5c2,0,2.9,1.9,3,4c0,1.9-1,3.7-3,3.8c-0.8,0-1.5-0.3-2.2-0.7V65L48,64.6l0-9.8
		C48,54.8,49,53.5,51.5,53.5L51.5,53.5z M51.2,60.4c1.6-0.1,1.8-1.7,1.8-3c0-1.2-0.2-3.1-1.8-3.1c-1.1-0.1-1.9,0.4-2.1,0.6v4.9
		C49.6,60,50.4,60.4,51.2,60.4z"/>
	<path class="st6" d="M57.8,58.7c0,1.1,0.8,1.7,1.9,1.7c0.7,0,1.4-0.4,1.8-0.7v-6.1h1.2v6.8c0,0.9-0.1,2.2-0.4,2.9
		c-0.6,1.2-2.4,1.7-3.7,1.7l-0.2-0.8c1-0.1,2.3-0.3,2.8-1.2c0.3-0.5,0.3-1.4,0.3-2c0-0.2,0-0.1,0-0.3c-0.4,0.2-1.2,0.6-2.7,0.6
		c-1.1,0-2.4-0.8-2.4-2.2v-5.2l1.3-0.4V58.7L57.8,58.7z"/>
	<path class="st6" d="M64.2,54.4v-0.8H65v-2.1l1.2-0.4v2.5h1.4v0.8h-1.4v4.9c0,1,0.5,1.2,1.4,1.3v0.6C66,61.4,65,60.6,65,59.3v-4.9
		H64.2z"/>
	<path class="st6" d="M74.3,61.1v-4.8c0-0.9-0.4-1.9-1.4-1.9c-0.8,0-1.5,0.5-2.1,0.9v5.8h-1.2V49.6l1.2-0.4v5.2
		c0.7-0.5,1.6-0.9,2.6-0.9c1.3,0,2.2,1,2.2,2.3v5.2H74.3z"/>
	<path class="st6" d="M80.5,53.5c2.1,0,3.4,1.8,3.4,3.8c0,2.1-1.1,4-3.4,4c-2.3,0-3.4-2-3.4-4C77.1,55.2,78.4,53.5,80.5,53.5z
		 M78.4,57.2c0,1.4,0.5,3.2,2.1,3.3c1.7-0.1,2-1.8,2-3.3c0-1.3-0.5-2.8-2.1-2.9C78.8,54.4,78.4,55.9,78.4,57.2L78.4,57.2z"/>
	<path class="st6" d="M90.4,61.1V56c0-1.1-0.7-1.8-1.8-1.8c-0.7,0-1.3,0.3-1.7,0.6v6.2h-1.2v-6.4c0.6-0.5,1.2-0.8,2-1
		c0.6-0.2,1.4-0.3,2.3-0.1c0.9,0.2,1.7,0.9,1.7,1.9v5.7H90.4z"/>
</g>
</svg>
