<svg id="Camada_1" data-name="Camada 1" xmlns="http://www.w3.org/2000/svg" xmlns:xlink="http://www.w3.org/1999/xlink" viewBox="0 0 140 84"><defs><style>.cls-1{fill:url(#Gradiente_sem_nome_2);}.cls-2,.cls-3{fill:#fff;}.cls-3{opacity:0.25;isolation:isolate;}.cls-4{fill:red;}.cls-5{fill:#22acdd;}.cls-6{fill:#c9c9c9;}.cls-7{fill:#f33052;}</style><linearGradient id="Gradiente_sem_nome_2" y1="42" x2="140" y2="42" gradientUnits="userSpaceOnUse"><stop offset="0" stop-color="#80d8ff"/><stop offset="1" stop-color="#ea80fc"/></linearGradient></defs><title>project</title><rect class="cls-1" width="140" height="84" rx="4" ry="4"/><path class="cls-2" d="M61.73,12H8.27A2.26,2.26,0,0,0,6,14.27V54.11a2.27,2.27,0,0,0,2.27,2.27H26.61l-4,10.56A2.26,2.26,0,0,0,24.76,70H45.24a2.26,2.26,0,0,0,2.12-3.06l-4-10.56H61.73A2.27,2.27,0,0,0,64,54.11V14.27A2.26,2.26,0,0,0,61.73,12ZM28,65.47l3.42-9.09h7.1L42,65.47ZM59.47,51.85H10.53V47.37H59.47Zm0-9H10.53V16.53H59.47ZM44.38,34.16a5.24,5.24,0,0,0-2.46-1V28.67H36.17V25.35h3.49V19.6H31v5.75h3.49v3.32h-5.3V33l-4.4,3.51L30,40.61l5.16-4.11-4.28-3.41V30.31h9.41v2.9a5.18,5.18,0,0,0-2.42.95,3.25,3.25,0,0,0,0,5.45,5.77,5.77,0,0,0,6.52,0,3.25,3.25,0,0,0,0-5.45ZM32.68,21.24H38V23.7H32.68ZM30,38.51l-2.52-2,2.52-2,2.52,2ZM41.12,39c-1.68,0-3.1-1-3.1-2.09s1.42-2.1,3.1-2.1,3.1,1,3.1,2.1S42.8,39,41.12,39Z"/><path class="cls-2" d="M70.26,38.84l2-2.05-2-2.06A1.94,1.94,0,1,1,73,32l3.43,3.43a1.93,1.93,0,0,1,0,2.74L73,41.59a1.94,1.94,0,1,1-2.74-2.75Z"/><path d="M136,18.6V15.88a3.09,3.09,0,0,0-3.08-3.08H84.29a3.09,3.09,0,0,0-3.08,3.08V18.6Z"/><path class="cls-3" d="M97,12.8H84.29a3.09,3.09,0,0,0-3.08,3.08V18.6h12.4Z"/><rect class="cls-2" x="82.07" y="19.48" width="53.08" height="37.67"/><path class="cls-2" d="M134.29,20.33v36H82.92v-36h51.37M136,18.62H81.21V58H136V18.62Z"/><path class="cls-2" d="M133.43,21.19V55.43H83.78V21.19h49.65m.43-.43H83.35v35.1h50.51V20.76Z"/><circle class="cls-4" cx="85.54" cy="15.71" r="0.87"/><circle class="cls-5" cx="88.18" cy="15.71" r="0.87"/><circle class="cls-2" cx="90.8" cy="15.71" r="0.87"/><path class="cls-2" d="M127.05,17.25H99.5A1.54,1.54,0,0,1,98,15.71h0a1.54,1.54,0,0,1,1.54-1.54h27.55a1.55,1.55,0,0,1,1.54,1.54h0A1.57,1.57,0,0,1,127.05,17.25Z"/><path d="M100.54,15l.21.8c0,.17.08.35.12.52h0c0-.16.09-.33.14-.5l.26-.8h.24l.24.8c0,.19.1.36.13.51h0c0-.15.07-.32.12-.51l.22-.8h.3L102,16.62h-.26l-.23-.76a2.94,2.94,0,0,1-.14-.53h0c0,.19-.09.36-.14.53l-.26.76h-.25L100.27,15h.27v0Z"/><path d="M103,15l.21.8c0,.17.08.35.12.52h0c0-.16.09-.33.14-.5l.26-.8H104l.24.8c.05.19.1.36.13.51h0q0-.22.12-.51l.22-.8H105l-.51,1.59h-.26l-.24-.79a4.11,4.11,0,0,1-.13-.53h0c0,.19-.09.36-.14.53l-.26.75h-.25L102.72,15H103v0Z"/><path d="M105.46,15l.2.8a4.87,4.87,0,0,1,.12.52h0a3.43,3.43,0,0,1,.14-.5l.25-.8h.24l.24.8.14.51h0a4.55,4.55,0,0,1,.12-.51l.22-.8h.29L107,16.62h-.26l-.24-.76c0-.17-.1-.34-.14-.53h0a2.94,2.94,0,0,1-.14.53l-.25.76h-.26L105.18,15h.28Z"/><path d="M107.56,16.43a.21.21,0,0,1,.21-.21.19.19,0,0,1,.19.21.19.19,0,0,1-.21.21A.19.19,0,0,1,107.56,16.43Z"/><rect class="cls-2" x="130.57" y="15.54" width="2.47" height="0.43"/><polygon class="cls-2" points="131.99 17.03 131.69 16.72 132.66 15.74 131.69 14.77 131.99 14.48 133.28 15.74 131.99 17.03"/><polygon class="cls-6" points="127.2 15.21 126.39 16.28 125.57 15.21 127.2 15.21"/><path class="cls-7" d="M119.19,36.07h-.5a4.71,4.71,0,0,0-6.16-3.38,8,8,0,0,0-15.6,2.66c0,.27,0,.55,0,.82A6.2,6.2,0,0,0,98,48.48h21.16a6.21,6.21,0,0,0,0-12.41Z"/><path class="cls-2" d="M97.1,39.34l.74,2.81c.15.61.31,1.18.41,1.74h0c.12-.56.31-1.15.5-1.74l.91-2.81h.83l.86,2.75c.21.67.36,1.25.5,1.8h0a13.84,13.84,0,0,1,.43-1.78l.79-2.77h1l-1.78,5.51h-.91l-.84-2.64c-.18-.61-.36-1.16-.49-1.81h0a16.29,16.29,0,0,1-.5,1.81l-.89,2.62h-.93l-1.66-5.49Z"/><path class="cls-2" d="M105.63,39.34l.73,2.81c.16.61.31,1.18.41,1.74h0c.12-.56.31-1.15.49-1.74l.91-2.81h.84l.86,2.75c.2.67.36,1.25.49,1.8h0a12.35,12.35,0,0,1,.43-1.78l.78-2.77h1l-1.78,5.51H110l-.84-2.64c-.19-.61-.36-1.16-.5-1.81h0a16.29,16.29,0,0,1-.5,1.81l-.89,2.62h-.91l-1.66-5.51h1Z"/><path class="cls-2" d="M114.15,39.34l.74,2.81c.15.61.31,1.18.41,1.74h0c.12-.56.31-1.15.5-1.74l.91-2.81h.84l.85,2.75c.21.67.36,1.25.5,1.8h0a13.84,13.84,0,0,1,.43-1.78l.79-2.77h1l-1.78,5.51h-.91l-.83-2.64c-.19-.61-.36-1.16-.5-1.81h0a16.33,16.33,0,0,1-.49,1.81l-.89,2.62h-.91l-1.66-5.51h1v0Z"/><path class="cls-7" d="M119.08,36.07h-.5a4.73,4.73,0,0,0-4.6-3.65,4.78,4.78,0,0,0-1.56.27,8,8,0,0,0-15.6,2.66c0,.27,0,.55,0,.82a6.2,6.2,0,0,0,1,12.31h21.16a6.21,6.21,0,0,0,0-12.41Z"/><path class="cls-2" d="M97,39.34l.74,2.81c.15.61.31,1.18.41,1.74h0c.12-.56.31-1.15.5-1.74l.91-2.81h.84l.85,2.75c.21.67.36,1.25.5,1.8h0a13.84,13.84,0,0,1,.43-1.78l.79-2.77h1l-1.78,5.51h-.9l-.84-2.64c-.19-.61-.36-1.16-.5-1.81h0a16.29,16.29,0,0,1-.5,1.81l-.89,2.62h-.92L96,39.34Z"/><path class="cls-2" d="M105.52,39.34l.74,2.81c.15.61.3,1.18.41,1.74h0c.12-.56.31-1.15.5-1.74l.91-2.81h.83l.86,2.75c.21.67.36,1.25.5,1.8h0a13.84,13.84,0,0,1,.43-1.78l.79-2.77h1l-1.78,5.51h-.91L109,42.21a17.15,17.15,0,0,1-.49-1.81h0a16.29,16.29,0,0,1-.5,1.81l-.89,2.62h-.91l-1.66-5.51h1Z"/><path class="cls-2" d="M114.05,39.34l.73,2.81c.16.61.31,1.18.41,1.74h0c.12-.56.31-1.15.49-1.74l.91-2.81h.84l.86,2.75c.2.67.36,1.25.49,1.8h0a12.35,12.35,0,0,1,.43-1.78l.78-2.77h1l-1.78,5.51h-.91l-.84-2.64c-.19-.61-.36-1.16-.5-1.81h0a16.29,16.29,0,0,1-.5,1.81l-.89,2.62h-.91l-1.66-5.51h1v0Z"/><path class="cls-7" d="M119,36.07h-.49a4.72,4.72,0,0,0-6.17-3.38,8,8,0,0,0-15.59,2.66c0,.27,0,.55,0,.82a6.2,6.2,0,0,0,1,12.31H119a6.21,6.21,0,0,0,0-12.41Z"/><path class="cls-2" d="M96.89,39.34l.73,2.81c.16.61.31,1.18.41,1.74h0c.12-.56.31-1.15.49-1.74l.91-2.81h.84l.86,2.75c.2.67.36,1.25.49,1.8h0a12.35,12.35,0,0,1,.43-1.78l.78-2.77h1l-1.78,5.51h-.91l-.84-2.64c-.19-.61-.36-1.16-.5-1.81h0a16.29,16.29,0,0,1-.5,1.81l-.89,2.62h-.92l-1.66-5.49Z"/><path class="cls-2" d="M105.41,39.34l.74,2.81c.15.61.31,1.18.41,1.74h0c.12-.56.31-1.15.5-1.74l.91-2.81h.84l.85,2.75c.21.67.36,1.25.5,1.8h0a13.84,13.84,0,0,1,.43-1.78l.79-2.77h1l-1.78,5.51h-.91l-.83-2.64c-.19-.61-.36-1.16-.5-1.81h0a16.33,16.33,0,0,1-.49,1.81L107,44.83h-.91l-1.66-5.51h1Z"/><path class="cls-2" d="M113.94,39.34l.74,2.81c.15.61.3,1.18.41,1.74h0c.12-.56.31-1.15.5-1.74l.9-2.81h.84l.86,2.75c.21.67.36,1.25.5,1.8h0a13.84,13.84,0,0,1,.43-1.78l.79-2.77h1l-1.78,5.51h-.91l-.84-2.64a17.15,17.15,0,0,1-.49-1.81h0a16.29,16.29,0,0,1-.5,1.81l-.89,2.62h-.91L113,39.32h1v0Z"/><path class="cls-7" d="M119.08,36.07h-.5a4.73,4.73,0,0,0-4.6-3.65,4.78,4.78,0,0,0-1.56.27,8,8,0,0,0-15.6,2.66c0,.27,0,.55,0,.82a6.2,6.2,0,0,0,1,12.31h21.16a6.21,6.21,0,0,0,0-12.41Z"/><path class="cls-2" d="M97,39.34l.74,2.81c.15.61.31,1.18.41,1.74h0c.12-.56.31-1.15.5-1.74l.91-2.81h.84l.85,2.75c.21.67.36,1.25.5,1.8h0a13.84,13.84,0,0,1,.43-1.78l.79-2.77h1l-1.78,5.51h-.9l-.84-2.64c-.19-.61-.36-1.16-.5-1.81h0a16.29,16.29,0,0,1-.5,1.81l-.89,2.62h-.92L96,39.34Z"/><path class="cls-2" d="M105.52,39.34l.74,2.81c.15.61.3,1.18.41,1.74h0c.12-.56.31-1.15.5-1.74l.91-2.81h.83l.86,2.75c.21.67.36,1.25.5,1.8h0a13.84,13.84,0,0,1,.43-1.78l.79-2.77h1l-1.78,5.51h-.91L109,42.21a17.15,17.15,0,0,1-.49-1.81h0a16.29,16.29,0,0,1-.5,1.81l-.89,2.62h-.91l-1.66-5.51h1Z"/><path class="cls-2" d="M114.05,39.34l.73,2.81c.16.61.31,1.18.41,1.74h0c.12-.56.31-1.15.49-1.74l.91-2.81h.84l.86,2.75c.2.67.36,1.25.49,1.8h0a12.35,12.35,0,0,1,.43-1.78l.78-2.77h1l-1.78,5.51h-.91l-.84-2.64c-.19-.61-.36-1.16-.5-1.81h0a16.29,16.29,0,0,1-.5,1.81l-.89,2.62h-.91l-1.66-5.51h1v0Z"/><path class="cls-7" d="M119.19,36.07h-.5a4.71,4.71,0,0,0-6.16-3.38,8,8,0,0,0-15.6,2.66c0,.27,0,.55,0,.82A6.2,6.2,0,0,0,98,48.48h21.16a6.21,6.21,0,0,0,0-12.41Z"/><path class="cls-2" d="M97.1,39.34l.74,2.81c.15.61.31,1.18.41,1.74h0c.12-.56.31-1.15.5-1.74l.91-2.81h.83l.86,2.75c.21.67.36,1.25.5,1.8h0a13.84,13.84,0,0,1,.43-1.78l.79-2.77h1l-1.78,5.51h-.91l-.84-2.64c-.18-.61-.36-1.16-.49-1.81h0a16.29,16.29,0,0,1-.5,1.81l-.89,2.62h-.93l-1.66-5.49Z"/><path class="cls-2" d="M105.63,39.34l.73,2.81c.16.61.31,1.18.41,1.74h0c.12-.56.31-1.15.49-1.74l.91-2.81h.84l.86,2.75c.2.67.36,1.25.49,1.8h0a12.35,12.35,0,0,1,.43-1.78l.78-2.77h1l-1.78,5.51H110l-.84-2.64c-.19-.61-.36-1.16-.5-1.81h0a16.29,16.29,0,0,1-.5,1.81l-.89,2.62h-.91l-1.66-5.51h1Z"/><path class="cls-2" d="M114.15,39.34l.74,2.81c.15.61.31,1.18.41,1.74h0c.12-.56.31-1.15.5-1.74l.91-2.81h.84l.85,2.75c.21.67.36,1.25.5,1.8h0a13.84,13.84,0,0,1,.43-1.78l.79-2.77h1l-1.78,5.51h-.91l-.83-2.64c-.19-.61-.36-1.16-.5-1.81h0a16.33,16.33,0,0,1-.49,1.81l-.89,2.62h-.91l-1.66-5.51h1v0Z"/></svg>