<svg id="Camada_1" data-name="Camada 1" xmlns="http://www.w3.org/2000/svg" viewBox="0 0 140 84"><defs><style>.cls-1{fill:#fff;}.cls-2{fill:#b3b3b3;}.cls-3{fill:gray;}.cls-4{fill:#ed1e24;}.cls-5{fill:#3c8ace;}.cls-6{isolation:isolate;}.cls-7{fill:#ff6804;}</style></defs><title>project</title><rect class="cls-1" width="140" height="84" rx="4" ry="4"/><path class="cls-2" d="M71.16,53l-.41.44a2.28,2.28,0,0,0-1.68-.67,1.62,1.62,0,0,0-1,.28.89.89,0,0,0-.37.74.59.59,0,0,0,.33.55,4.81,4.81,0,0,0,1.25.38,3.59,3.59,0,0,1,1.57.59,1.26,1.26,0,0,1,.46,1,1.42,1.42,0,0,1-.58,1.18,2.29,2.29,0,0,1-1.49.46,3.31,3.31,0,0,1-1.34-.28,2.81,2.81,0,0,1-1-.8l.42-.45a2.34,2.34,0,0,0,1.94.93,1.77,1.77,0,0,0,1-.28.87.87,0,0,0,.4-.75.71.71,0,0,0-.32-.63,4.24,4.24,0,0,0-1.25-.41,4.08,4.08,0,0,1-1.57-.57,1.14,1.14,0,0,1-.47-1,1.42,1.42,0,0,1,.56-1.16,2.25,2.25,0,0,1,1.46-.45A2.73,2.73,0,0,1,71.16,53Z"/><path class="cls-2" d="M76.17,55.9H72.7A1.64,1.64,0,0,0,73.18,57a1.39,1.39,0,0,0,1,.39h.06a1.69,1.69,0,0,0,1.32-.61l.39.42a2.33,2.33,0,0,1-3.33.17,2.29,2.29,0,0,1-.6-1.65V55.6A2.36,2.36,0,0,1,72.63,54a2,2,0,0,1,1.5-.63h.05a1.86,1.86,0,0,1,1.45.62,2.41,2.41,0,0,1,.54,1.65Zm-2-2a1.34,1.34,0,0,0-1,.37,1.73,1.73,0,0,0-.46,1h2.8a1.73,1.73,0,0,0-.42-1,1.2,1.2,0,0,0-.91-.37Z"/><path class="cls-2" d="M79.18,53.33h.15v.58h-.1a1.26,1.26,0,0,0-1,.48,2.05,2.05,0,0,0-.37,1.3v2.13h-.64v-4.4h.64v.7a1.55,1.55,0,0,1,1.36-.8Z"/><path class="cls-2" d="M83.94,53.43l-1.68,4.4h-.78l-1.68-4.4h.69l1.39,3.71,1.37-3.71Z"/><path class="cls-2" d="M85.42,57.83h-.64V52.07h.64Z"/><path class="cls-2" d="M90.53,55.9H87.06A1.64,1.64,0,0,0,87.54,57a1.39,1.39,0,0,0,1,.39h.06A1.71,1.71,0,0,0,90,56.73l.39.42a2.33,2.33,0,0,1-3.33.17,2.29,2.29,0,0,1-.6-1.65V55.6A2.36,2.36,0,0,1,87,54a2,2,0,0,1,1.5-.63h.05A1.82,1.82,0,0,1,90,54a2.37,2.37,0,0,1,.55,1.65Zm-2-2a1.34,1.34,0,0,0-1,.37,1.73,1.73,0,0,0-.46,1h2.8a1.73,1.73,0,0,0-.42-1,1.2,1.2,0,0,0-.91-.37Z"/><path class="cls-2" d="M92.53,54v2.87c0,.37.14.48.56.48h.56v.55a6.41,6.41,0,0,1-.7.06c-.71,0-1.06-.39-1.06-1.18V54h-.68v-.56h.68v-.71l.64-.1v.81h1.12V54Z"/><path id="path14" class="cls-3" d="M69.24,45.47c0,.27-.64.62-.84.75-.94.59-2.28,1-3.16.11a2,2,0,0,1,.31-3,3.83,3.83,0,0,1,1.68-.46,12.3,12.3,0,0,1,2-.08ZM62.9,37.28l.37,1.45c.62-.15,1-.37,1.92-.55a7.26,7.26,0,0,1,2.29-.12A1.64,1.64,0,0,1,69,39a3.13,3.13,0,0,1,.25,1V41.2s-2.34.17-2.66.21c-2.29.29-4.58,1.53-4.23,4.4a3,3,0,0,0,3,2.82,4.38,4.38,0,0,0,2.46-.35,6.64,6.64,0,0,0,1-.49c.39-.25.73-.6.81-.64l.24,1.23h1.85c0-.38,0-5,0-5.47V40.16a4,4,0,0,0-.48-2.24c-1.26-2-4-1.9-6.24-1.36a7.43,7.43,0,0,0-2,.72"/><path id="path16" class="cls-3" d="M91.5,45.62c-.16.09-.33.26-.51.39a4.17,4.17,0,0,1-1.86.81,1.91,1.91,0,0,1-1.87-2.94c.7-1.16,2.93-1.09,4.24-1.1Zm-6.33-8.34a8.65,8.65,0,0,0,.39,1.44c.34-.07,1.1-.39,1.92-.55,1.21-.24,3.18-.43,3.76.86a4.51,4.51,0,0,1,.24,2.16,8.73,8.73,0,0,1-1.34.1,8.11,8.11,0,0,0-3.57.79,3.44,3.44,0,0,0-2,3.74c.23,1.8,1.19,2.58,3,2.81A4.92,4.92,0,0,0,91,47.78a7.68,7.68,0,0,0,.81-.64L92,48.37H93.9V40.16a4,4,0,0,0-.49-2.26c-1.22-2-4-1.85-6.22-1.34a7.5,7.5,0,0,0-2,.72"/><path id="path18" class="cls-3" d="M76.79,48.4h3c.1,0,.31-.5.37-.62s.2-.44.3-.67c.2-.43.39-.92.56-1.38a54.1,54.1,0,0,0,1.79-6c.12-.49.69-2.87.69-3.21H81.25c-.48,0-.28-.06-.41.93a26.27,26.27,0,0,1-.6,3c-.18.71-1.44,5.19-1.69,5.48l-.63-2.4c-.24-.8-.46-1.57-.71-2.36l-1.1-3.48c-.12-.39-.24-.81-.38-1.17H73.1c0,.24,1.73,5.59,1.84,6,.32,1,.62,1.95.93,2.95s.65,2,.92,3"/><path id="path20" class="cls-3" d="M57.93,36.24V46.55c0,1.91-.63,4.1-2.55,4.73.11.23.94,1.08,1.16,1.41a5.09,5.09,0,0,0,2-1.06,5.37,5.37,0,0,0,1.3-1.75c.81-1.66.68-3.42.68-5.41,0-4.07,0-8.14,0-12.21-.3,0-2.06,0-2.56,0v4"/><path id="path22" class="cls-4" d="M29.21,40.17l-1.06-1.54c-.35-.51-.69-1.07-1-1.63a14.84,14.84,0,0,1-1.64-3.65c-.6-2.38.88-3.86,2.18-5.42.19-.24.43-.47.64-.69,1.36-1.43,3.22-3.15,4.68-4.56a7.86,7.86,0,0,0,2.53-5.38c.09-1.22-.14-3.83-1-4.3a8.4,8.4,0,0,1-.43,4.91,10.88,10.88,0,0,1-3.88,4.68c-1.32,1-3.49,2.89-4.63,4a11,11,0,0,0-2.51,3.18c-.77,1.81,0,3,.81,4.27.39.6.79,1.12,1.21,1.66s.92,1.06,1.31,1.56.92,1,1.36,1.5a17.77,17.77,0,0,0,1.44,1.44"/><path id="path24" class="cls-5" d="M44.93,55.88c.52.83,0,1.19-.7,1.52-3.16,1.48-13.83,1.75-17.16,1.8A53.82,53.82,0,0,1,17,58.54c-.53-.09-2.87-.46-3-1.08-.07-.39.35-.69.56-.82a10.15,10.15,0,0,1,3.09-1,10.61,10.61,0,0,0,1.14-.21c-1.59-.23-6.62.62-7.72,2.18-.7,1,.47,1.45,1.24,1.7,2.9.95,8.94,1.14,12.13,1.19,4.76.06,16.22,0,20.42-2.87.25-.17.73-.52.78-.86s-.44-.83-.7-.93"/><path id="path26" class="cls-4" d="M31.19,42.11a12.4,12.4,0,0,0,2.4-1.81,4.77,4.77,0,0,0,1.5-2.74A6,6,0,0,0,34,34.44c-1.42-2.15-2.55-3.38-.63-5.76a13.74,13.74,0,0,1,2.15-2.09A38.8,38.8,0,0,1,39.21,24l1.3-.84a23.62,23.62,0,0,0-3.23,1.09,22,22,0,0,0-2.93,1.41c-2.89,1.67-5.74,4.29-4.58,7.91.79,2.45,3.09,3.92,2.92,5.75-.1,1.13-1.18,2.26-1.5,2.82"/><path id="path28" class="cls-5" d="M37.23,54.09a14.42,14.42,0,0,1-2.35-1.2c-.47-.28-.29-.25-.88-.11a38.8,38.8,0,0,1-8.84.53c-.65,0-2.48-.08-2.85-.69-.24-.39.08-.67.21-.89-1.66.33-3.35,1.71-1,2.86,2.59,1.29,8,1.3,10.88.79a31.08,31.08,0,0,0,4.87-1.29"/><path id="path30" class="cls-5" d="M38,48.68a4.28,4.28,0,0,1-1.72-1c-.37-.31-.24-.23-1-.1-2.84.47-11.28,1.3-13.7.3-.31-.13-.67-.32-.69-.69s.34-.68.5-.92c-1.95.24-3.81,2.12-1.21,3,2.94,1,9.27,1,12.39.65A29.45,29.45,0,0,0,38,48.68"/><path id="path32" class="cls-5" d="M40,42.31c-.37,0-.86.13-1.24.19s-.84.13-1.27.18c-2.6.37-5.48.66-8.08.81-2,.12-9.69.38-10.84-.69-.08-.48.47-.78.8-1a20.81,20.81,0,0,1,4-1.35c-1.79-.17-6.28,1.12-7.91,2.13s1.17,1.54,2.27,1.69a65.8,65.8,0,0,0,18.75-.49,3.82,3.82,0,0,0,2-.53c.48-.31,1.12-.64,1.55-1"/><path id="path34" class="cls-5" d="M17.79,61.62A33,33,0,0,0,25.5,63a58.88,58.88,0,0,0,8.81,0c3.68-.26,8-.68,11.29-2.33.77-.39,2.16-1.33,2.29-2.23a7,7,0,0,0-.65.46c-5.71,3.94-18.77,3.56-25.5,3.08l-3.95-.33"/><path id="path36" class="cls-5" d="M41.24,40.78a4.2,4.2,0,0,1,3.88.64,3.09,3.09,0,0,1,.28,3.73,13.25,13.25,0,0,1-4.47,4.17c-.28.17-.54.31-.78.48A16.62,16.62,0,0,0,44.58,48a7.38,7.38,0,0,0,3.07-3.21,3.32,3.32,0,0,0-1.57-4.2A4.55,4.55,0,0,0,43.55,40a3.71,3.71,0,0,0-2.31.8"/><g class="cls-6"><path d="M106.92,40.6a1.42,1.42,0,0,1,0,.35c0,.13,0,.25-.07.39L106,45.23h-1.73l.62-3c0-.21.07-.39.12-.6s0-.35,0-.46a.6.6,0,0,0-.16-.47.79.79,0,0,0-.53-.13,1,1,0,0,0-.42.09,3.51,3.51,0,0,0-.56.3l-.88,4.24h-1.73l.62-3c0-.19.07-.37.12-.56a1.71,1.71,0,0,0,0-.46.65.65,0,0,0-.14-.46.76.76,0,0,0-.54-.14,1.14,1.14,0,0,0-.44.11c-.16.07-.34.17-.55.28L99,45.23H97.3l1.23-6h1.71l-.09.68a5.73,5.73,0,0,1,.95-.61,2.13,2.13,0,0,1,.91-.2,1.57,1.57,0,0,1,.88.25,1.49,1.49,0,0,1,.5.77,7.69,7.69,0,0,1,1.14-.79,1.86,1.86,0,0,1,1-.26,1.38,1.38,0,0,1,1.07.4A1.59,1.59,0,0,1,106.92,40.6Z"/></g><g class="cls-6"><path class="cls-7" d="M110.53,44.7c-.09.07-.21.14-.35.23a2.42,2.42,0,0,1-.37.21,2.22,2.22,0,0,1-.44.14,3.91,3.91,0,0,1-.58,0,1.38,1.38,0,0,1-1-.32,1.08,1.08,0,0,1-.37-.86,1.71,1.71,0,0,1,.26-1,2,2,0,0,1,.78-.62,5,5,0,0,1,1.16-.33c.44-.07.93-.11,1.46-.14a.2.2,0,0,1,0-.09s0-.07,0-.14a.39.39,0,0,0-.28-.41,2.43,2.43,0,0,0-.83-.12,3.78,3.78,0,0,0-.84.12l-.67.2h-.14l.23-1.11.81-.16a8.45,8.45,0,0,1,1.12-.09,3.51,3.51,0,0,1,1.62.28.94.94,0,0,1,.51.9.59.59,0,0,1,0,.21.79.79,0,0,1,0,.23l-.74,3.2h-1.51Zm.39-1.74-.76.07a2,2,0,0,0-.6.14,1.05,1.05,0,0,0-.4.25.7.7,0,0,0-.14.44.37.37,0,0,0,.19.35,1,1,0,0,0,.51.09,1.38,1.38,0,0,0,.49-.09c.16-.07.32-.16.48-.25Z"/></g><path d="M119.05,40.48l-2.89,4.7h-1.72l-.71-4.7h1.55l.35,3.25,1.8-3.25Z"/><path d="M121.51,45.32a2.87,2.87,0,0,1-1.85-.53,1.75,1.75,0,0,1-.65-1.46,3.29,3.29,0,0,1,.21-1.18,2.65,2.65,0,0,1,.62-.95,3.05,3.05,0,0,1,1-.62,3.17,3.17,0,0,1,1.28-.24,2.47,2.47,0,0,1,1.57.42A1.52,1.52,0,0,1,124.2,42a5.29,5.29,0,0,1,0,.56c-.05.18-.09.37-.14.53h-3.5v.09a.94.94,0,0,0,.35.77,1.68,1.68,0,0,0,1,.27,2.36,2.36,0,0,0,.93-.16,3.36,3.36,0,0,0,.76-.37h.17l-.28,1.21a4.21,4.21,0,0,1-.93.3A4.88,4.88,0,0,1,121.51,45.32Zm1.16-3.08s0-.09,0-.14V42a.59.59,0,0,0-.21-.5.86.86,0,0,0-.6-.19,1.31,1.31,0,0,0-.79.25,1.57,1.57,0,0,0-.48.7h2.06Z"/><path d="M130.06,41.55a.92.92,0,0,1,0,.28,1.65,1.65,0,0,1,0,.3l-.7,3h-1.53l.54-2.33c0-.17.07-.33.09-.44a2.11,2.11,0,0,0,0-.35.46.46,0,0,0-.14-.4c-.09-.09-.25-.11-.51-.11a1.4,1.4,0,0,0-.41.07,3.77,3.77,0,0,0-.54.23l-.76,3.33h-1.51l1.09-4.7h1.51L127,41a4.76,4.76,0,0,1,.86-.48,1.9,1.9,0,0,1,.83-.17,1.57,1.57,0,0,1,1,.3A1.21,1.21,0,0,1,130.06,41.55Z"/></svg>