<svg id="Camada_1" data-name="Camada 1" xmlns="http://www.w3.org/2000/svg" xmlns:xlink="http://www.w3.org/1999/xlink" viewBox="0 0 140 84"><defs><style>.cls-1{fill:none;}.cls-2{fill:#fff;}.cls-3{fill:#333;}.cls-4{fill:#689f63;}.cls-5{clip-path:url(#clip-path);}.cls-6{fill:url(#Gradiente_sem_nome_4);}.cls-7{clip-path:url(#clip-path-2);}.cls-8{fill:url(#Gradiente_sem_nome_2);}.cls-9{clip-path:url(#clip-path-3);}.cls-10{fill:url(#Gradiente_sem_nome_3);}</style><clipPath id="clip-path"><path class="cls-1" d="M54.46,23.7l-10.34,6a1.26,1.26,0,0,0-.63,1.08v12a1.26,1.26,0,0,0,.63,1.09l10.34,6a1.27,1.27,0,0,0,1.25,0l10.35-6a1.28,1.28,0,0,0,.62-1.09v-12a1.27,1.27,0,0,0-.62-1.08l-10.35-6a1.26,1.26,0,0,0-.62-.17,1.29,1.29,0,0,0-.63.17"/></clipPath><linearGradient id="Gradiente_sem_nome_4" x1="0.01" y1="82.29" x2="0.3" y2="82.29" gradientTransform="matrix(-50.75, 103.54, 103.54, 50.75, -8456.47, -4155.78)" gradientUnits="userSpaceOnUse"><stop offset="0.3" stop-color="#3e863d"/><stop offset="0.5" stop-color="#55934f"/><stop offset="0.8" stop-color="#5aad45"/></linearGradient><clipPath id="clip-path-2"><path class="cls-1" d="M43.75,43.46a1.31,1.31,0,0,0,.37.33L53,48.91l1.48.85a1.21,1.21,0,0,0,.72.16,1.09,1.09,0,0,0,.25,0l10.91-20a1.63,1.63,0,0,0-.29-.23l-6.78-3.91L55.7,23.7a1.27,1.27,0,0,0-.32-.13Z"/></clipPath><linearGradient id="Gradiente_sem_nome_2" x1="-0.38" y1="85.09" x2="-0.18" y2="85.09" gradientTransform="matrix(142.41, -105.22, -105.22, -142.41, 9047.83, 12124.06)" gradientUnits="userSpaceOnUse"><stop offset="0.57" stop-color="#3e863d"/><stop offset="0.72" stop-color="#619857"/><stop offset="1" stop-color="#76ac64"/></linearGradient><clipPath id="clip-path-3"><path class="cls-1" d="M55,23.54a1.33,1.33,0,0,0-.5.16L44.15,29.65,55.27,49.91a1.2,1.2,0,0,0,.45-.15l10.34-6a1.24,1.24,0,0,0,.6-.86L55.33,23.56l-.26,0H55"/></clipPath><linearGradient id="Gradiente_sem_nome_3" x1="-0.84" y1="84.9" x2="-0.66" y2="84.9" gradientTransform="matrix(129.89, 0, 0, -129.89, 152.74, 11064.87)" gradientUnits="userSpaceOnUse"><stop offset="0.16" stop-color="#6bbf47"/><stop offset="0.38" stop-color="#79b461"/><stop offset="0.47" stop-color="#75ac64"/><stop offset="0.7" stop-color="#659e5a"/><stop offset="0.9" stop-color="#3e863d"/></linearGradient></defs><title>project</title><rect class="cls-2" width="140" height="84" rx="4" ry="4"/><path class="cls-3" d="M38.31,30.57a1.24,1.24,0,0,0-.63-1.09l-10.4-6a1.14,1.14,0,0,0-.57-.16H26.6a1.17,1.17,0,0,0-.57.16l-10.4,6A1.25,1.25,0,0,0,15,30.57l0,16.11a.62.62,0,0,0,.32.55.58.58,0,0,0,.62,0l6.18-3.54a1.29,1.29,0,0,0,.63-1.09V35.07A1.25,1.25,0,0,1,23.4,34L26,32.46a1.29,1.29,0,0,1,.63-.17,1.26,1.26,0,0,1,.62.17L29.91,34a1.25,1.25,0,0,1,.63,1.09V42.6a1.29,1.29,0,0,0,.63,1.09l6.18,3.53a.6.6,0,0,0,.63,0,.63.63,0,0,0,.31-.54ZM87.39,39a.32.32,0,0,1-.16.27l-3.57,2.06a.36.36,0,0,1-.32,0l-3.57-2.06a.32.32,0,0,1-.16-.27V34.83a.32.32,0,0,1,.16-.27l3.57-2.06a.29.29,0,0,1,.31,0l3.58,2.06a.31.31,0,0,1,.15.27Zm1-30.55a.62.62,0,0,0-.62,0,.61.61,0,0,0-.31.54v16a.45.45,0,0,1-.22.38.43.43,0,0,1-.44,0l-2.61-1.5a1.27,1.27,0,0,0-1.25,0l-10.41,6a1.24,1.24,0,0,0-.63,1.08v12A1.26,1.26,0,0,0,72.49,44L82.9,50a1.27,1.27,0,0,0,1.25,0l10.41-6a1.28,1.28,0,0,0,.62-1.09V13a1.24,1.24,0,0,0-.64-1.1ZM123,34.73a1.26,1.26,0,0,0,.63-1.09V30.73a1.26,1.26,0,0,0-.63-1.09l-10.33-6a1.29,1.29,0,0,0-1.26,0l-10.4,6a1.24,1.24,0,0,0-.63,1.09v12a1.25,1.25,0,0,0,.63,1.09l10.33,5.89a1.27,1.27,0,0,0,1.24,0l6.25-3.47a.66.66,0,0,0,.32-.55.62.62,0,0,0-.32-.55l-10.46-6a.62.62,0,0,1-.32-.55V34.85a.63.63,0,0,1,.32-.55l3.25-1.87a.6.6,0,0,1,.63,0l3.26,1.87a.63.63,0,0,1,.31.55v3a.63.63,0,0,0,.31.54.64.64,0,0,0,.63,0Z"/><path class="cls-4" d="M111.87,34.16a.25.25,0,0,1,.24,0l2,1.16a.24.24,0,0,1,.12.2v2.31a.24.24,0,0,1-.12.21l-2,1.15a.25.25,0,0,1-.24,0l-2-1.15a.22.22,0,0,1-.12-.21V35.52a.22.22,0,0,1,.12-.2Z"/><g class="cls-5"><path class="cls-6" d="M77.13,28.66,48,14.37,33,44.86,62.19,59.15Z"/></g><g class="cls-7"><path class="cls-8" d="M31.15,32.88,51.73,60.74,79,40.63,58.37,12.77Z"/></g><g class="cls-9"><path class="cls-10" d="M44.15,23.54V49.91H66.66V23.54Z"/></g><path d="M42,60.05c0-.63-.3-.95-.64-.95H40.8v-.37h6.55l.74,2.32h-.3c-.56-1.45-1.11-1.95-2.12-1.95H43.19c-.53,0-.6.6-.6.95v2.8h2c1,0,1.1-.36,1.1-1.47H46v3.3h-.3c0-1.23-.19-1.46-1.1-1.46h-2v3.22a.6.6,0,0,0,.61.68h2.31a3.14,3.14,0,0,0,2.56-1.89h.31l-1,2.26H40.8v-.37h.61a.61.61,0,0,0,.58-.68Z"/><path d="M52.64,62.89l-2.16-3.32a1,1,0,0,0-1-.47h-.41v-.37h3.25v.37h-.66c-.41,0-.6,0-.6.26a.35.35,0,0,0,.08.21L53,62.39l1.5-2.18a1.9,1.9,0,0,0,.36-.79c0-.15-.09-.33-.51-.32H54v-.37h2.78v.37h-.36a1.16,1.16,0,0,0-1.14.65l-2,3,2.09,3.2c.6,1,.84,1.21,1.32,1.21H57v.37H53.78v-.37h.52c.25,0,.63-.11.63-.44a1.47,1.47,0,0,0-.32-.77l-1.75-2.69-2,3a.77.77,0,0,0-.16.44c0,.46.42.46,1,.46v.37H48.84v-.37c.65,0,.88,0,1.54-.9Z"/><path d="M58.69,59.84c0-.41-.17-.74-.62-.74h-.55v-.37h3.69c1.71,0,3.59.3,3.59,2.19a2.05,2.05,0,0,1-.89,1.72,5.35,5.35,0,0,1-3.06.67H59.29v3.13a.62.62,0,0,0,.67.68h.53v.37h-3v-.37h.63c.32,0,.56-.24.56-.68Zm2.16,3.1c1.07,0,3.33-.09,3.33-2a1.64,1.64,0,0,0-.72-1.37,4.24,4.24,0,0,0-2.25-.45h-1c-.68,0-.88.18-.88.74v3.1Z"/><path d="M66.78,59.7a.56.56,0,0,0-.62-.6h-.57v-.37h3.7c2,0,3.59.45,3.59,2.17a2,2,0,0,1-.9,1.72,4.46,4.46,0,0,1-2.14.67l2,3.35.31.34a.71.71,0,0,0,.47.14h.58v.37H71.63l-2.45-4.18h-1.8V66.6c0,.48.49.52.66.52h.54v.37h-3v-.37h.63a.52.52,0,0,0,.56-.52Zm2.15,3.24a4.75,4.75,0,0,0,2.48-.5,1.74,1.74,0,0,0,.86-1.54,1.6,1.6,0,0,0-.73-1.34,4.13,4.13,0,0,0-2.25-.46h-1c-.67,0-.87.14-.87.6v3.24Z"/><path d="M74.87,60.05c0-.63-.3-.95-.64-.95h-.55v-.37h6.55L81,61.05h-.3c-.56-1.45-1.11-1.95-2.12-1.95H76.07c-.53,0-.6.6-.6.95v2.8h2c1,0,1.1-.36,1.1-1.47h.3v3.3h-.3c0-1.23-.19-1.46-1.1-1.46h-2v3.22a.6.6,0,0,0,.61.68h2.31A3.14,3.14,0,0,0,81,65.23h.31l-1,2.26H73.68v-.37h.61a.62.62,0,0,0,.58-.68Z"/><path d="M88,61.06C87.38,60,86.65,59,85.19,59a1.84,1.84,0,0,0-2,1.79c0,1.51,1.19,1.85,2.22,2a4.68,4.68,0,0,1,2.39.86A1.81,1.81,0,0,1,88.53,65a2.63,2.63,0,0,1-2.79,2.59,5.33,5.33,0,0,1-2.27-.69l-.35.35H83l-.84-2.07h.3a4.45,4.45,0,0,0,3.26,2,2.09,2.09,0,0,0,2.18-1.95c0-.55-.38-1.51-2.47-1.82a3.7,3.7,0,0,1-2.33-1,2.36,2.36,0,0,1-.5-1.48,2.46,2.46,0,0,1,2.57-2.37,4.44,4.44,0,0,1,2,.61l.34-.27h.1l.71,2.11Z"/><path d="M95.5,61.06C94.91,60,94.17,59,92.71,59a1.85,1.85,0,0,0-2,1.79c0,1.51,1.19,1.85,2.22,2a4.64,4.64,0,0,1,2.39.86,1.79,1.79,0,0,1,.7,1.35,2.64,2.64,0,0,1-2.8,2.59A5.29,5.29,0,0,1,91,66.92l-.35.35h-.11L89.7,65.2H90a4.45,4.45,0,0,0,3.26,2,2.09,2.09,0,0,0,2.18-1.95c0-.55-.38-1.51-2.47-1.82a3.64,3.64,0,0,1-2.32-1A2.31,2.31,0,0,1,90.14,61a2.47,2.47,0,0,1,2.57-2.37,4.47,4.47,0,0,1,2,.61L95,59h.11l.71,2.11Z"/></svg>