<?xml version="1.0" encoding="utf-8"?>
<!-- Generator: Adobe Illustrator 22.1.0, SVG Export Plug-In . SVG Version: 6.00 Build 0)  -->
<svg version="1.1" id="Camada_1" xmlns="http://www.w3.org/2000/svg" xmlns:xlink="http://www.w3.org/1999/xlink" x="0px" y="0px"
	 viewBox="0 0 140 84" style="enable-background:new 0 0 140 84;" xml:space="preserve">
<style type="text/css">
	.st0{fill:#FFFFFF;}
	.st1{fill:#B3B3B3;}
	.st2{font-family:'ArialMT';}
	.st3{font-size:8px;}
	.st4{fill:#808080;}
	.st5{fill:#659C35;}
	.st6{fill:#D13834;}
	.st7{fill:#88C057;}
	.st8{fill:#F75B57;}
</style>
<path class="st0" d="M136,84H4c-2.2,0-4-1.8-4-4V4c0-2.2,1.8-4,4-4h132c2.2,0,4,1.8,4,4v76C140,82.2,138.2,84,136,84z"/>
<text transform="matrix(1 0 0 1 60.5 74.833)" class="st1 st2 st3">flask</text>
<g>
	<path class="st4" d="M51.5,53.5c2,0,2.9,1.9,3,4c0,1.9-1,3.7-3,3.8c-0.8,0-1.5-0.3-2.2-0.7V65L48,64.6v-9.8
		C48,54.8,49,53.5,51.5,53.5L51.5,53.5z M51.2,60.4c1.6-0.1,1.8-1.7,1.8-3c0-1.2-0.2-3.1-1.8-3.1c-1.1-0.1-1.9,0.4-2.1,0.6v4.9
		C49.6,60,50.4,60.4,51.2,60.4z"/>
	<path class="st4" d="M57.8,58.7c0,1.1,0.8,1.7,1.9,1.7c0.7,0,1.4-0.4,1.8-0.7v-6.1h1.2v6.8c0,0.9-0.1,2.2-0.4,2.9
		c-0.6,1.2-2.4,1.7-3.7,1.7l-0.2-0.8c1-0.1,2.3-0.3,2.8-1.2c0.3-0.5,0.3-1.4,0.3-2c0-0.2,0-0.1,0-0.3c-0.4,0.2-1.2,0.6-2.7,0.6
		c-1.1,0-2.4-0.8-2.4-2.2v-5.2l1.3-0.4v5.2H57.8z"/>
	<path class="st4" d="M64.2,54.4v-0.8H65v-2.1l1.2-0.4v2.5h1.4v0.8h-1.4v4.9c0,1,0.5,1.2,1.4,1.3v0.6C66,61.4,65,60.6,65,59.3v-4.9
		C65,54.4,64.2,54.4,64.2,54.4z"/>
	<path class="st4" d="M74.3,61.1v-4.8c0-0.9-0.4-1.9-1.4-1.9c-0.8,0-1.5,0.5-2.1,0.9v5.8h-1.2V49.6l1.2-0.4v5.2
		c0.7-0.5,1.6-0.9,2.6-0.9c1.3,0,2.2,1,2.2,2.3V61h-1.3V61.1z"/>
	<path class="st4" d="M80.5,53.5c2.1,0,3.4,1.8,3.4,3.8c0,2.1-1.1,4-3.4,4s-3.4-2-3.4-4C77.1,55.2,78.4,53.5,80.5,53.5z M78.4,57.2
		c0,1.4,0.5,3.2,2.1,3.3c1.7-0.1,2-1.8,2-3.3c0-1.3-0.5-2.8-2.1-2.9C78.8,54.4,78.4,55.9,78.4,57.2L78.4,57.2z"/>
	<path class="st4" d="M90.4,61.1V56c0-1.1-0.7-1.8-1.8-1.8c-0.7,0-1.3,0.3-1.7,0.6V61h-1.2v-6.4c0.6-0.5,1.2-0.8,2-1
		c0.6-0.2,1.4-0.3,2.3-0.1s1.7,0.9,1.7,1.9v5.7C91.7,61.1,90.4,61.1,90.4,61.1z"/>
</g>
<g>
	<path class="st5" d="M54.4,12.2c0.2,0,0.4-0.1,0.6-0.2c0.3-0.3,0.3-0.8,0-1.1c-0.8-0.8-1.3-1.8-1.1-2.4C54,8.1,54.4,7.8,55,7.6
		c0.4-0.1,0.6-0.6,0.5-1c-0.2-0.4-0.6-0.6-1-0.5c-1.5,0.5-2,1.4-2.1,2.1c-0.3,1.2,0.3,2.6,1.5,3.9C53.9,12.1,54.2,12.2,54.4,12.2z"
		/>
	<path class="st6" d="M63.3,18c0.1,0.4,0.2,0.8,0.3,1.2c2.8,12.1,13.2,18.4,24.9,24.7c0.5,0.3,0.6,1.2,0.1,1.1
		c-7.6-1.1-27.3,0.8-36.9-21.1c0,0-5-10.1,1.4-11.7C53.1,12.1,61.9,8.1,63.3,18z"/>
	<path class="st7" d="M49.8,19.8c-0.7-3.2-0.7-6.9,3.1-7.9c0,0,8.6-3.9,10.7,4.9c-2-0.1-4.7-0.5-5.5-1.6c0,0-1.8,1.7-0.9,4.2
		c0,0-3.8-0.4-3.5-3.4c0,0-2.3,1.9-1.7,5C52,21.1,50.9,20.7,49.8,19.8z"/>
	<path class="st8" d="M77.3,42c0.3,0,0.7-0.2,0.8-0.5c0.1-0.4-0.1-0.9-0.5-1C60,35,58.1,23.4,58.1,23.3c-0.1-0.4-0.5-0.7-0.9-0.7
		c-0.4,0.1-0.7,0.5-0.7,0.9C56.6,24,58.6,36.2,77,42C77.1,42,77.2,42,77.3,42z"/>
</g>
</svg>
