<?xml version="1.0" encoding="utf-8"?>
<!-- Generator: Adobe Illustrator 22.1.0, SVG Export Plug-In . SVG Version: 6.00 Build 0)  -->
<svg version="1.1" id="Camada_1" xmlns="http://www.w3.org/2000/svg" xmlns:xlink="http://www.w3.org/1999/xlink" x="0px" y="0px"
	 viewBox="0 0 16 16" style="enable-background:new 0 0 16 16;" xml:space="preserve">
<style type="text/css">
	.st0{fill:#E34D26;}
	.st1{fill:#EAEAEA;}
</style>
<title>file_type_html</title>
<g>
	<path class="st0" d="M7.9,15.9C7.9,15.8,7.9,15.8,7.9,15.9c-0.6-0.2-1.1-0.3-1.6-0.5c-1.2-0.3-2.4-0.7-3.6-1
		c-0.1,0-0.3-0.1-0.4-0.1c0,0,0,0,0-0.1c0-0.4-0.1-0.8-0.1-1.3c0-0.4-0.1-0.8-0.1-1.2C2.1,11.4,2,11,2,10.6c0-0.4-0.1-0.8-0.1-1.2
		c0-0.4-0.1-0.8-0.1-1.3c0-0.4-0.1-0.8-0.1-1.2c0-0.4-0.1-0.8-0.1-1.3c0-0.4-0.1-0.8-0.1-1.2c0-0.4-0.1-0.8-0.1-1.3
		c0-0.4-0.1-0.8-0.1-1.2c0-0.4-0.1-0.8-0.1-1.2c0-0.3,0-0.6-0.1-0.8c0,0,0,0,0,0c0,0,0,0,0,0c4.6,0,9.2,0,13.7,0
		c0.1,0,0.1,0,0.1,0.1c0,0.3-0.1,0.7-0.1,1c0,0.3-0.1,0.6-0.1,0.9c0,0.4-0.1,0.7-0.1,1.1c0,0.3-0.1,0.6-0.1,0.9c0,0.3-0.1,0.7-0.1,1
		c0,0.3-0.1,0.6-0.1,0.9c0,0.4-0.1,0.7-0.1,1.1c0,0.3-0.1,0.6-0.1,0.9c0,0.4-0.1,0.7-0.1,1.1c0,0.3-0.1,0.6-0.1,0.9
		c0,0.3-0.1,0.7-0.1,1c0,0.3-0.1,0.6-0.1,0.9c0,0.3-0.1,0.6-0.1,0.9c0,0.3-0.1,0.6-0.1,0.9c0,0.1,0,0.2,0,0.3c0,0,0,0,0,0
		c-0.3,0.1-0.6,0.2-1,0.3c-1.5,0.4-3,0.8-4.6,1.3C8.1,15.8,8,15.8,7.9,15.9C8,15.9,8,15.9,7.9,15.9C8,15.9,8,15.9,7.9,15.9
		C8,15.9,8,15.9,7.9,15.9z M8,3C8,3,8,3,8,3c0,0-0.1,0-0.1,0C6.5,3,5.1,3,3.7,3c0,0-0.1,0-0.1,0.1c0,0.3,0.1,0.6,0.1,0.9
		c0,0.3,0.1,0.7,0.1,1c0,0.3,0.1,0.7,0.1,1C3.9,6.4,4,6.8,4,7.2c0,0.4,0.1,0.7,0.1,1.1c0,0,0,0.1,0.1,0.1c1.3,0,2.6,0,3.9,0
		c0.7,0,1.3,0,2,0c0,0,0,0,0,0c0,0,0,0,0,0c0,0.1,0,0.3,0,0.4c0,0.3-0.1,0.6-0.1,0.9c0,0.3,0,0.5-0.1,0.8c0,0,0,0,0,0.1
		C9.3,10.7,8.7,10.9,8,11c0,0,0,0-0.1,0c-0.6-0.2-1.2-0.3-1.9-0.5c0,0,0,0,0,0c0-0.2,0-0.3,0-0.5c0-0.3,0-0.6-0.1-0.8
		c0,0,0-0.1-0.1-0.1c-0.3,0-0.6,0-0.9,0c-0.2,0-0.5,0-0.7,0c0,0,0,0,0,0c0,0.3,0,0.5,0.1,0.8c0,0.3,0.1,0.7,0.1,1
		c0,0.3,0,0.5,0.1,0.8c0,0,0,0,0,0.1c1.2,0.3,2.3,0.6,3.5,1c0,0,0.1,0,0.1,0c0.7-0.2,1.5-0.4,2.2-0.6c0.4-0.1,0.9-0.2,1.3-0.4
		c0,0,0,0,0.1-0.1c0-0.3,0.1-0.7,0.1-1c0-0.5,0.1-1,0.1-1.5c0-0.4,0.1-0.8,0.1-1.3c0-0.5,0.1-1,0.1-1.5c0-0.1,0-0.1-0.1-0.1
		c-1.3,0-2.7,0-4,0c-0.7,0-1.4,0-2.1,0c-0.1,0-0.1,0-0.1-0.1c0,0,0,0,0,0c0-0.5-0.1-1-0.1-1.6c0,0,0-0.1,0.1-0.1c0.6,0,1.2,0,1.8,0
		c1.6,0,3.1,0,4.7,0c0,0,0.1,0,0.1-0.1c0-0.1,0-0.2,0-0.3c0-0.5,0.1-0.9,0.1-1.4c0-0.1,0-0.1-0.1-0.1c-1.2,0-2.4,0-3.6,0
		C8.5,3,8.2,3,8,3z"/>
	<path class="st1" d="M8,3c0.2,0,0.5,0,0.7,0c1.2,0,2.4,0,3.6,0c0.1,0,0.1,0,0.1,0.1c0,0.5-0.1,0.9-0.1,1.4c0,0.1,0,0.2,0,0.3
		c0,0,0,0.1-0.1,0.1c-1.6,0-3.1,0-4.7,0c-0.6,0-1.2,0-1.8,0c0,0-0.1,0-0.1,0.1c0,0.5,0.1,1,0.1,1.6c0,0,0,0,0,0c0,0.1,0,0.1,0.1,0.1
		c0.7,0,1.4,0,2.1,0c1.3,0,2.7,0,4,0c0.1,0,0.1,0,0.1,0.1c0,0.5-0.1,1-0.1,1.5c0,0.4-0.1,0.8-0.1,1.3c0,0.5-0.1,1-0.1,1.5
		c0,0.3-0.1,0.7-0.1,1c0,0,0,0-0.1,0.1c-0.4,0.1-0.9,0.2-1.3,0.4c-0.7,0.2-1.5,0.4-2.2,0.6c0,0-0.1,0-0.1,0c-1.2-0.3-2.3-0.6-3.5-1
		c0,0,0,0,0-0.1c0-0.3,0-0.5-0.1-0.8c0-0.3-0.1-0.7-0.1-1c0-0.3,0-0.5-0.1-0.8c0,0,0,0,0,0c0.2,0,0.5,0,0.7,0c0.3,0,0.6,0,0.9,0
		c0,0,0.1,0,0.1,0.1C6,9.5,6,9.8,6,10c0,0.2,0,0.3,0,0.5c0,0,0,0,0,0C6.7,10.7,7.3,10.9,8,11c0,0,0,0,0.1,0c0.6-0.2,1.2-0.3,1.9-0.5
		c0,0,0,0,0-0.1c0-0.3,0-0.5,0.1-0.8c0-0.3,0.1-0.6,0.1-0.9c0-0.1,0-0.3,0-0.4c0,0,0,0,0,0c0,0,0,0,0,0c-0.7,0-1.3,0-2,0
		c-1.3,0-2.6,0-3.9,0c0,0-0.1,0-0.1-0.1C4.1,7.9,4,7.5,4,7.2C4,6.8,3.9,6.4,3.9,6c0-0.3-0.1-0.7-0.1-1c0-0.3-0.1-0.7-0.1-1
		c0-0.3-0.1-0.6-0.1-0.9C3.6,3,3.7,3,3.7,3c1.4,0,2.8,0,4.2,0C7.9,3,8,3,8,3C8,3,8,3,8,3z"/>
</g>
</svg>
