<svg id="Camada_1" data-name="Camada 1" xmlns="http://www.w3.org/2000/svg" xmlns:xlink="http://www.w3.org/1999/xlink" viewBox="0 0 140 84"><defs><style>.cls-1{fill:url(#Gradiente_sem_nome_2);}.cls-2{fill:#fff;}</style><linearGradient id="Gradiente_sem_nome_2" y1="42" x2="140" y2="42" gradientUnits="userSpaceOnUse"><stop offset="0" stop-color="#80d8ff"/><stop offset="1" stop-color="#ea80fc"/></linearGradient></defs><title>project</title><rect class="cls-1" width="140" height="84" rx="4" ry="4"/><path class="cls-2" d="M63.73,12H10.27A2.26,2.26,0,0,0,8,14.27V54.11a2.27,2.27,0,0,0,2.27,2.27H28.61l-4,10.56A2.26,2.26,0,0,0,26.76,70H47.24a2.26,2.26,0,0,0,2.12-3.06l-4-10.56H63.73A2.27,2.27,0,0,0,66,54.11V14.27A2.26,2.26,0,0,0,63.73,12ZM30,65.47l3.42-9.09h7.1L44,65.47ZM61.47,51.85H12.53V47.37H61.47Zm0-9H12.53V16.53H61.47ZM46.38,34.16a5.24,5.24,0,0,0-2.46-1V28.67H38.17V25.35h3.49V19.6H33v5.75h3.49v3.32h-5.3V33l-4.4,3.51L32,40.61l5.16-4.11-4.28-3.41V30.31h9.41v2.9a5.18,5.18,0,0,0-2.42.95,3.25,3.25,0,0,0,0,5.45,5.77,5.77,0,0,0,6.52,0,3.25,3.25,0,0,0,0-5.45ZM34.68,21.24H40V23.7H34.68ZM32,38.51l-2.52-2,2.52-2,2.52,2ZM43.12,39c-1.68,0-3.1-1-3.1-2.09s1.42-2.1,3.1-2.1,3.1,1,3.1,2.1S44.8,39,43.12,39Z"/><path class="cls-2" d="M76.26,42.84l2-2.05-2-2.06A1.94,1.94,0,1,1,79,36l3.43,3.43a1.93,1.93,0,0,1,0,2.74L79,45.59a1.94,1.94,0,1,1-2.74-2.75Z"/><path class="cls-2" d="M125.84,8H99a3.36,3.36,0,0,0-3.36,3.36V69.64A3.36,3.36,0,0,0,99,73h26.89a3.37,3.37,0,0,0,3.37-3.36V11.36A3.37,3.37,0,0,0,125.84,8Zm-17.93,4.48A1.12,1.12,0,0,1,109,11.36h6.73a1.12,1.12,0,0,1,1.12,1.12h0a1.12,1.12,0,0,1-1.12,1.12H109a1.12,1.12,0,0,1-1.12-1.12Zm-3.36-1.12a1.12,1.12,0,1,1-1.12,1.12A1.12,1.12,0,0,1,104.55,11.36Zm7.85,59.4a2.24,2.24,0,1,1,2.24-2.24A2.24,2.24,0,0,1,112.4,70.76ZM127,50.59V64H97.83V17H127V50.59Z"/><path class="cls-2" d="M114.64,54h-4.48A1.13,1.13,0,0,0,109,55.07v4.48a1.13,1.13,0,0,0,1.13,1.12h4.48a1.12,1.12,0,0,0,1.12-1.12V55.07A1.12,1.12,0,0,0,114.64,54Zm-2.24,5.6a2.24,2.24,0,1,1,2.24-2.24A2.24,2.24,0,0,1,112.4,59.55Z"/><path class="cls-2" d="M118,59.55a1.12,1.12,0,0,0,1.12,1.12h4.48a1.12,1.12,0,0,0,1.12-1.12V55.07A1.12,1.12,0,0,0,123.6,54h-4.48A1.12,1.12,0,0,0,118,55.07Z"/><path class="cls-2" d="M105.67,54h-4.48a1.12,1.12,0,0,0-1.12,1.12v4.48a1.12,1.12,0,0,0,1.12,1.12h4.48a1.12,1.12,0,0,0,1.12-1.12V55.07A1.12,1.12,0,0,0,105.67,54Z"/><path class="cls-2" d="M110.16,46.1h4.48A1.12,1.12,0,0,0,115.76,45V40.5a1.12,1.12,0,0,0-1.12-1.12h-4.48A1.13,1.13,0,0,0,109,40.5V45A1.13,1.13,0,0,0,110.16,46.1Z"/><path class="cls-2" d="M119.12,46.1h4.48A1.12,1.12,0,0,0,124.72,45V40.5a1.12,1.12,0,0,0-1.12-1.12h-4.48A1.12,1.12,0,0,0,118,40.5V45A1.12,1.12,0,0,0,119.12,46.1Zm0-3.36a1.12,1.12,0,0,1,1.12-1.12h2.24a1.12,1.12,0,0,1,1.12,1.12h0a1.12,1.12,0,0,1-1.12,1.12h-2.24a1.12,1.12,0,0,1-1.12-1.12Z"/><path class="cls-2" d="M101.19,46.1h4.48A1.12,1.12,0,0,0,106.79,45V40.5a1.12,1.12,0,0,0-1.12-1.12h-4.48a1.12,1.12,0,0,0-1.12,1.12V45A1.12,1.12,0,0,0,101.19,46.1Zm0-3.36a1.12,1.12,0,0,1,1.12-1.12h2.24a1.12,1.12,0,0,1,1.12,1.12h0a1.12,1.12,0,0,1-1.12,1.12h-2.24a1.12,1.12,0,0,1-1.12-1.12Z"/><path class="cls-2" d="M110.16,37.14h4.48A1.12,1.12,0,0,0,115.76,36V31.53a1.12,1.12,0,0,0-1.12-1.12h-4.48A1.13,1.13,0,0,0,109,31.53V36A1.13,1.13,0,0,0,110.16,37.14Zm0-3.36a1.12,1.12,0,0,1,1.12-1.12h2.24a1.12,1.12,0,0,1,1.12,1.12h0a1.12,1.12,0,0,1-1.12,1.12h-2.24a1.12,1.12,0,0,1-1.12-1.12Z"/><path class="cls-2" d="M119.12,37.14h4.48A1.12,1.12,0,0,0,124.72,36V31.53a1.12,1.12,0,0,0-1.12-1.12h-4.48A1.12,1.12,0,0,0,118,31.53V36A1.12,1.12,0,0,0,119.12,37.14Z"/><path class="cls-2" d="M101.19,37.14h4.48A1.12,1.12,0,0,0,106.79,36V31.53a1.12,1.12,0,0,0-1.12-1.12h-4.48a1.12,1.12,0,0,0-1.12,1.12V36A1.12,1.12,0,0,0,101.19,37.14Zm2.24-5.61a2.25,2.25,0,1,1-2.24,2.25A2.24,2.24,0,0,1,103.43,31.53Z"/><path class="cls-2" d="M110.16,28.17h4.48a1.12,1.12,0,0,0,1.12-1.12V22.57a1.12,1.12,0,0,0-1.12-1.12h-4.48A1.13,1.13,0,0,0,109,22.57v4.48A1.13,1.13,0,0,0,110.16,28.17Z"/><path class="cls-2" d="M119.12,28.17h4.48a1.12,1.12,0,0,0,1.12-1.12V22.57a1.12,1.12,0,0,0-1.12-1.12h-4.48A1.12,1.12,0,0,0,118,22.57v4.48A1.12,1.12,0,0,0,119.12,28.17Zm2.24-5.6a2.24,2.24,0,1,1-2.24,2.24A2.24,2.24,0,0,1,121.36,22.57Z"/><path class="cls-2" d="M101.19,28.17h4.48a1.12,1.12,0,0,0,1.12-1.12V22.57a1.12,1.12,0,0,0-1.12-1.12h-4.48a1.12,1.12,0,0,0-1.12,1.12v4.48A1.12,1.12,0,0,0,101.19,28.17Z"/><circle class="cls-2" cx="103.43" cy="33.78" r="2.24"/><circle class="cls-2" cx="112.4" cy="57.31" r="2.24"/><circle class="cls-2" cx="121.36" cy="24.81" r="2.24"/><path class="cls-2" d="M102.31,43.86h2.24a1.12,1.12,0,0,0,1.12-1.12h0a1.12,1.12,0,0,0-1.12-1.12h-2.24a1.12,1.12,0,0,0-1.12,1.12h0A1.12,1.12,0,0,0,102.31,43.86Z"/><circle class="cls-2" cx="107.91" cy="50.59" r="1.12"/><circle class="cls-2" cx="112.4" cy="50.59" r="1.12"/><circle class="cls-2" cx="116.88" cy="50.59" r="1.12"/></svg>