<?xml version="1.0" encoding="utf-8"?>
<!-- Generator: Adobe Illustrator 22.1.0, SVG Export Plug-In . SVG Version: 6.00 Build 0)  -->
<svg version="1.1" id="Camada_1" xmlns="http://www.w3.org/2000/svg" xmlns:xlink="http://www.w3.org/1999/xlink" x="0px" y="0px"
	 viewBox="0 0 16 16" style="enable-background:new 0 0 16 16;" xml:space="preserve">
<style type="text/css">
	.st0{fill:#F6DF1C;}
	.st1{fill:#050600;}
	.st2{fill:#030401;}
</style>
<title>data-source-js</title>
<path class="st0" d="M8,15.6H0.6c0,0-0.1,0-0.1-0.1V0.6c0,0,0-0.1,0.1-0.1h14.8c0,0,0.1,0,0.1,0.1v15c0,0.1,0,0-0.1,0H8z M12,14.4
	c0.2,0,0.4,0,0.7,0c0.6-0.1,1.1-0.4,1.4-0.9c0.5-0.9,0.2-2.1-0.7-2.7c-0.5-0.3-1-0.5-1.5-0.7c-0.2-0.1-0.4-0.2-0.6-0.3
	c-0.2-0.2-0.2-0.6,0-0.9c0.1-0.1,0.2-0.1,0.3-0.2c0.2,0,0.3,0,0.5,0c0.2,0.1,0.4,0.3,0.6,0.5c0,0,0,0.1,0.1,0l1-0.6c0,0,0,0,0-0.1
	c-0.2-0.3-0.4-0.6-0.7-0.8c-0.6-0.3-1.2-0.4-1.9-0.2C10.6,7.5,10,8,9.8,8.7c-0.2,0.7,0,1.5,0.6,2c0.4,0.3,0.8,0.5,1.2,0.7
	c0.3,0.1,0.6,0.3,0.9,0.5c0.3,0.2,0.4,0.6,0.2,0.9c-0.1,0.1-0.2,0.2-0.3,0.2c-0.3,0.1-0.7,0.1-1,0c-0.3-0.1-0.6-0.4-0.8-0.7
	c0,0,0-0.1-0.2,0l-1,0.6c0,0-0.1,0,0,0.2c0.1,0.2,0.2,0.4,0.4,0.5C10.4,14.2,11.2,14.5,12,14.4z M8.7,10V7.6c0-0.1,0-0.2-0.2-0.2
	H7.4c-0.1,0-0.2,0-0.2,0.2v4.6c0,0.1,0,0.3,0,0.4c0,0.3-0.2,0.5-0.5,0.6c-0.4,0.1-0.8,0-1-0.4l-0.2-0.2c0,0,0-0.1-0.2,0l-1,0.6
	c0,0-0.1,0,0,0.2C4.7,13.7,5,14,5.4,14.2c0.6,0.3,1.3,0.3,1.9,0.2c0.6-0.2,1.1-0.6,1.3-1.3c0-0.2,0-0.5,0-0.8L8.7,10z"/>
<path class="st1" d="M12,14.4c-0.8,0-1.6-0.3-2.2-0.8c-0.1-0.2-0.3-0.3-0.4-0.5c0,0,0-0.1,0-0.2l1-0.6c0,0,0.1,0,0.2,0
	c0.2,0.3,0.5,0.6,0.8,0.7c0.3,0.1,0.7,0.1,1,0c0.3-0.1,0.5-0.5,0.4-0.8c0-0.1-0.1-0.3-0.2-0.3c-0.3-0.2-0.6-0.3-0.9-0.5
	c-0.4-0.2-0.9-0.4-1.2-0.7c-0.5-0.5-0.7-1.3-0.5-2c0.2-0.7,0.8-1.2,1.5-1.3c0.6-0.2,1.3-0.1,1.9,0.2c0.3,0.2,0.5,0.5,0.7,0.8
	c0,0,0,0,0,0.1l-1,0.6c0,0-0.1,0-0.1,0c-0.1-0.2-0.3-0.4-0.6-0.5c-0.2,0-0.3,0-0.5,0c-0.3,0.1-0.5,0.4-0.4,0.8
	c0,0.1,0.1,0.2,0.2,0.3c0.2,0.1,0.4,0.3,0.6,0.3c0.5,0.2,1,0.5,1.5,0.7c0.9,0.6,1.2,1.8,0.7,2.7c-0.3,0.5-0.8,0.9-1.4,0.9
	C12.6,14.4,12.3,14.5,12,14.4z"/>
<path class="st2" d="M8.7,10v2.3c0,0.2,0,0.5,0,0.8c-0.2,0.6-0.6,1.1-1.3,1.3c-0.6,0.2-1.3,0.1-1.9-0.2c-0.4-0.2-0.7-0.5-0.9-0.9
	c0,0,0-0.1,0-0.2l1-0.6c0,0,0.1,0,0.2,0l0.2,0.2c0.2,0.3,0.6,0.5,1,0.4c0.3-0.1,0.4-0.3,0.5-0.6c0-0.1,0-0.3,0-0.4V7.6
	c0-0.1,0-0.2,0.2-0.2h1.1c0.1,0,0.2,0,0.2,0.2L8.7,10z"/>
</svg>
