<?xml version="1.0" encoding="utf-8"?>
<!-- Generator: Adobe Illustrator 25.0.0, SVG Export Plug-In . SVG Version: 6.00 Build 0)  -->
<svg version="1.1" id="Camada_1" xmlns="http://www.w3.org/2000/svg" xmlns:xlink="http://www.w3.org/1999/xlink" x="0px" y="0px"
	 viewBox="0 0 140 84" style="enable-background:new 0 0 140 84;" xml:space="preserve">
<style type="text/css">
	.st0{fill:#FFFFFF;}
	.st1{fill:#49D88B;}
	.st2{fill:#E9EFFF;}
	.st3{fill:#D3DCFB;}
	.st4{fill:#2A428C;}
	.st5{fill:#1C2E7A;}
	.st6{fill:#FF4155;}
	.st7{fill:#FFDD40;}
	.st8{fill:#38C674;}
	.st9{fill:#3C58A0;}
	.st10{fill:#9BD8F9;}
	.st11{fill:#1E9EF4;}
	.st12{fill:#1886EA;}
	.st13{fill:#4FABF7;}
	.st14{fill:#BEC8F7;}
</style>
<path class="st0" d="M4,0h132c2.2,0,4,1.8,4,4v76c0,2.2-1.8,4-4,4H4c-2.2,0-4-1.8-4-4V4C0,1.8,1.8,0,4,0z"/>
<g>
	<g>
		<path class="st1" d="M98,61.7c4-5.7,6.4-12.7,6.4-20.3C104.4,21.9,88.5,6,68.9,6S33.5,21.9,33.5,41.5c0,7.5,2.4,14.5,6.4,20.3H98z
			"/>
	</g>
	<g>
		<path class="st2" d="M98,14.3v47.4c-6.4,9.2-17,15.2-29.1,15.2s-22.7-6-29.1-15.2V14.3l7.6-1.1l21.4-3.1l21.4,3.1L98,14.3z"/>
	</g>
	<g>
		<path class="st3" d="M50.9,12.7l-3.4,0.5l-7.6,1.1v47.4c6.4,9.2,17,15.2,29.1,15.2s22.7-6,29.1-15.2c-26,0-47.1-21.1-47.1-47.1
			L50.9,12.7L50.9,12.7z"/>
	</g>
	<g>
		<path class="st4" d="M98,14.3H39.8V8.8c0-1.5,1.2-2.8,2.8-2.8h52.6C96.8,6,98,7.2,98,8.8V14.3z"/>
	</g>
	<g>
		<path class="st5" d="M49.3,12.9c0-0.8,0.6-1.4,1.4-1.4V8.8c-0.8,0-1.4-0.6-1.4-1.4S50,6,50.7,6h-8.1c-1.5,0-2.8,1.2-2.8,2.8v5.5
			h10.9C50,14.3,49.3,13.7,49.3,12.9z"/>
	</g>
	<g>
		<circle class="st6" cx="92.1" cy="10.2" r="1.4"/>
	</g>
	<g>
		<circle class="st7" cx="87.3" cy="10.2" r="1.4"/>
	</g>
	<g>
		<circle class="st8" cx="82.4" cy="10.2" r="1.4"/>
	</g>
	<g>
		<path class="st9" d="M45.7,11.5h29.8c0.8,0,1.4-0.6,1.4-1.4c0-0.8-0.6-1.4-1.4-1.4H45.7c-0.8,0-1.4,0.6-1.4,1.4
			C44.3,10.9,45,11.5,45.7,11.5z"/>
	</g>
	<g>
		<g>
			<circle class="st0" cx="68.9" cy="34.7" r="15.9"/>
		</g>
		<g>
			<g>
				<g>
					<path class="st10" d="M79.2,44c2.2-2.5,3.5-5.7,3.5-9.2c0-7.6-6.2-13.8-13.8-13.8s-13.8,6.2-13.8,13.8c0,3.6,1.3,6.8,3.5,9.2
						H79.2z"/>
				</g>
				<g>
					<path class="st11" d="M77.6,40.6c-1.2-1.1-6.3-1.9-6.3-1.9v-6.1h-4.7v6.1c0,0-5.2,0.8-6.3,1.9c-0.5,0.4-1.1,1.9-1.6,3.4
						c2.5,2.8,6.2,4.6,10.3,4.6c4.1,0,7.8-1.8,10.3-4.6C78.7,42.4,78.1,41,77.6,40.6z"/>
				</g>
				<g>
					<path class="st12" d="M74.6,46.7c-5.2,0-9.7-2.9-12.1-7.1c-1,0.3-1.9,0.6-2.3,1c-0.5,0.4-1.1,1.9-1.6,3.4
						c2.5,2.8,6.2,4.6,10.3,4.6c2.6,0,5-0.7,7.1-2C75.6,46.7,75.1,46.7,74.6,46.7L74.6,46.7z"/>
				</g>
				<g>
					<path class="st12" d="M66.6,32.6v6.1c2.5,0,4-1.9,4-1.9l0.8-4.1L66.6,32.6z"/>
				</g>
				<g>
					<path class="st13" d="M73.3,30.3c0,3.2-2,7-4.4,7s-4.4-3.8-4.4-7s2-5.6,4.4-5.6S73.3,27,73.3,30.3L73.3,30.3z"/>
				</g>
				<g>
					<path class="st11" d="M66,30.3c0-2.9,1.6-5.1,3.6-5.5c-0.2-0.1-0.5-0.1-0.8-0.1c-2.4,0-4.4,2.3-4.4,5.6c0,3.2,2,7,4.4,7
						c0.3,0,0.5,0,0.8-0.1C67.6,36.5,66,33.2,66,30.3L66,30.3z"/>
				</g>
			</g>
		</g>
	</g>
	<g>
		<g>
			<path class="st4" d="M85.5,60.7H52.3c-1.5,0-2.8-1.2-2.8-2.8c0-1.5,1.2-2.8,2.8-2.8h33.2c1.5,0,2.8,1.2,2.8,2.8
				C88.3,59.5,87.1,60.7,85.5,60.7z"/>
		</g>
		<g>
			<g>
				<g>
					<circle class="st9" cx="62.7" cy="57.9" r="1"/>
				</g>
			</g>
			<g>
				<g>
					<circle class="st9" cx="66.8" cy="57.9" r="1"/>
				</g>
			</g>
			<g>
				<g>
					<circle class="st9" cx="71" cy="57.9" r="1"/>
				</g>
			</g>
			<g>
				<g>
					<circle class="st9" cx="75.2" cy="57.9" r="1"/>
				</g>
			</g>
			<g>
				<g>
					<circle class="st9" cx="79.3" cy="57.9" r="1"/>
				</g>
			</g>
			<g>
				<g>
					<circle class="st9" cx="83.5" cy="57.9" r="1"/>
				</g>
			</g>
			<g>
				<g>
					<circle class="st9" cx="58.5" cy="57.9" r="1"/>
				</g>
			</g>
			<g>
				<g>
					<circle class="st9" cx="54.4" cy="57.9" r="1"/>
				</g>
			</g>
		</g>
	</g>
	<g>
		<path class="st0" d="M82.8,68.3H52.3c-1.5,0-2.8-1.2-2.8-2.8c0-1.5,1.2-2.8,2.8-2.8h30.5V68.3z"/>
	</g>
	<g>
		<path class="st13" d="M82.8,68.3h2.8c1.5,0,2.8-1.2,2.8-2.8c0-1.5-1.2-2.8-2.8-2.8h-2.8c-1.5,0-2.8,1.2-2.8,2.8
			C80,67.1,81.2,68.3,82.8,68.3z"/>
	</g>
	<g>
		<g>
			<circle class="st14" cx="63.4" cy="65.6" r="1"/>
		</g>
		<g>
			<circle class="st14" cx="67.5" cy="65.6" r="1"/>
		</g>
		<g>
			<circle class="st14" cx="71.7" cy="65.6" r="1"/>
		</g>
		<g>
			<circle class="st14" cx="75.9" cy="65.6" r="1"/>
		</g>
		<g>
			<circle class="st14" cx="59.2" cy="65.6" r="1"/>
		</g>
		<g>
			<circle class="st14" cx="55.1" cy="65.6" r="1"/>
		</g>
	</g>
	<g>
		<path class="st0" d="M83.2,64.7v1.7c0,0.2,0.2,0.4,0.4,0.2l1.3-0.9c0.2-0.1,0.2-0.4,0-0.5l-1.3-0.9C83.5,64.3,83.2,64.5,83.2,64.7
			L83.2,64.7z"/>
	</g>
</g>
</svg>
